<svg xmlns="http://www.w3.org/2000/svg" xmlns:xlink="http://www.w3.org/1999/xlink" width="117" zoomAndPan="magnify" viewBox="0 0 87.75 89.999999" height="120" preserveAspectRatio="xMidYMid meet" version="1.0"><defs><g/><clipPath id="14b3279b12"><path d="M 0 0.128906 L 86.753906 0.128906 L 86.753906 89.125 L 0 89.125 Z M 0 0.128906 " clip-rule="nonzero"/></clipPath><clipPath id="c6a67942d0"><path d="M 61 88 L 67 88 L 67 89.125 L 61 89.125 Z M 61 88 " clip-rule="nonzero"/></clipPath><clipPath id="844805a00a"><path d="M 68 82 L 86.753906 82 L 86.753906 89.125 L 68 89.125 Z M 68 82 " clip-rule="nonzero"/></clipPath><clipPath id="f7c87c6ef5"><path d="M 84 43 L 86.753906 43 L 86.753906 70 L 84 70 Z M 84 43 " clip-rule="nonzero"/></clipPath><clipPath id="81970a58c7"><path d="M 79 21 L 86.753906 21 L 86.753906 33 L 79 33 Z M 79 21 " clip-rule="nonzero"/></clipPath><clipPath id="91d6a40e99"><path d="M 81 26 L 86.753906 26 L 86.753906 47 L 81 47 Z M 81 26 " clip-rule="nonzero"/></clipPath><clipPath id="5cd71615f0"><path d="M 75 60 L 86.753906 60 L 86.753906 75 L 75 75 Z M 75 60 " clip-rule="nonzero"/></clipPath></defs><g clip-path="url(#14b3279b12)"><path fill="#000000" d="M 73.742188 2.351562 C 73.371094 2.351562 72.71875 2.285156 72.257812 2.351562 C 71.792969 2.417969 71.378906 2.601562 70.996094 2.75 C 70.609375 2.894531 70.214844 3.003906 69.953125 3.222656 C 69.011719 4.027344 70.023438 4.820312 70.367188 5.589844 C 70.484375 5.855469 70.21875 6.136719 70.101562 6.316406 C 69.988281 6.492188 69.695312 6.738281 69.507812 6.949219 C 69.324219 7.160156 69.128906 7.285156 68.988281 7.582031 C 68.851562 7.878906 68.828125 8.191406 68.691406 8.691406 C 68.554688 9.195312 68.347656 10.128906 68.171875 10.59375 C 67.996094 11.0625 67.863281 11.199219 67.652344 11.464844 C 67.441406 11.730469 67.21875 11.863281 66.910156 12.179688 C 66.601562 12.496094 66.039062 12.972656 65.796875 13.367188 C 65.550781 13.761719 65.484375 14.089844 65.496094 14.476562 C 65.511719 14.867188 65.746094 15.292969 65.871094 15.585938 C 65.992188 15.878906 66.164062 16.019531 66.242188 16.21875 C 66.316406 16.421875 66.378906 16.527344 66.316406 16.773438 C 66.25 17.023438 66.03125 17.371094 65.871094 17.648438 C 65.707031 17.925781 65.523438 18.121094 65.347656 18.4375 C 65.175781 18.757812 65.066406 19.097656 64.828125 19.550781 C 64.59375 20 64.113281 20.761719 63.9375 21.132812 C 63.761719 21.507812 63.777344 21.546875 63.789062 21.769531 C 63.800781 21.988281 63.882812 22.222656 64.011719 22.402344 C 64.140625 22.582031 64.296875 22.664062 64.53125 22.796875 C 64.769531 22.929688 65.265625 22.957031 65.421875 23.195312 C 65.433594 23.210938 65.359375 24.617188 65.3125 25.746094 C 65.289062 26.320312 64.96875 27.058594 64.996094 27.460938 C 65.019531 27.859375 65.070312 28.003906 65.332031 28.308594 C 65.589844 28.613281 66.128906 28.636719 66.316406 28.980469 C 66.5 29.320312 66.082031 29.386719 65.945312 29.851562 C 65.808594 30.316406 65.511719 31.113281 65.496094 31.753906 C 65.484375 32.390625 65.574219 33 65.871094 33.574219 C 66.164062 34.152344 66.726562 34.761719 67.207031 35.082031 C 67.6875 35.398438 68.179688 35.359375 68.617188 35.398438 C 69.054688 35.4375 69.3125 35.359375 69.804688 35.320312 C 70.300781 35.277344 70.996094 35.214844 71.589844 35.160156 L 73.074219 35.082031 C 72.851562 35.554688 72.714844 35.9375 72.40625 36.507812 C 72.097656 37.074219 71.65625 37.964844 71.21875 38.488281 C 70.777344 39.011719 70.3125 39.402344 69.804688 39.597656 C 69.296875 39.792969 68.941406 39.652344 68.320312 39.597656 C 67.699219 39.546875 66.894531 39.5625 66.09375 39.28125 C 65.289062 39 64.410156 38.382812 63.566406 37.933594 C 62.847656 37.40625 62.183594 36.839844 61.414062 36.347656 C 60.644531 35.859375 59.792969 35.410156 58.960938 35 C 58.132812 34.59375 57.363281 34.25 56.4375 33.890625 C 55.507812 33.535156 54.335938 33.074219 53.390625 32.863281 C 52.445312 32.648438 51.695312 32.652344 50.789062 32.625 C 49.886719 32.597656 49 32.585938 47.96875 32.703125 C 46.9375 32.824219 45.617188 33.152344 44.625 33.335938 C 43.636719 33.523438 42.757812 33.640625 42.027344 33.8125 C 41.292969 33.984375 40.746094 34.289062 40.242188 34.367188 C 39.742188 34.449219 39.492188 34.480469 39.054688 34.289062 C 38.617188 34.097656 38.261719 33.679688 37.71875 33.257812 C 37.171875 32.835938 36.445312 32.175781 35.785156 31.753906 C 35.128906 31.328125 34.503906 31 33.78125 30.722656 C 33.058594 30.445312 32.328125 30.195312 31.476562 30.089844 C 30.628906 29.980469 29.488281 30.035156 28.730469 30.089844 C 27.972656 30.140625 27.417969 30.3125 26.945312 30.40625 C 26.476562 30.496094 26.175781 30.628906 25.90625 30.644531 C 25.640625 30.65625 25.515625 30.761719 25.386719 30.484375 C 25.257812 30.207031 25.214844 29.761719 25.238281 29.21875 C 25.261719 28.671875 25.425781 27.960938 25.535156 27.234375 C 25.648438 26.507812 25.78125 25.652344 25.90625 24.859375 C 25.933594 24.066406 26.019531 23.144531 25.980469 22.480469 C 25.945312 21.816406 25.746094 21.359375 25.683594 20.894531 C 25.621094 20.433594 25.574219 20.265625 25.609375 19.707031 C 25.648438 19.148438 25.71875 18.234375 25.90625 17.566406 C 26.09375 16.898438 26.363281 16.472656 26.722656 15.746094 C 27.082031 15.019531 27.675781 13.921875 28.0625 13.210938 C 28.445312 12.496094 28.691406 11.945312 29.027344 11.464844 C 29.363281 10.988281 29.613281 10.53125 30.066406 10.355469 C 30.519531 10.179688 30.96875 10.296875 31.476562 10.515625 C 31.988281 10.730469 32.519531 11.242188 33.039062 11.625 C 33.558594 12.007812 34.050781 12.554688 34.597656 12.8125 C 35.144531 13.070312 35.863281 12.785156 36.230469 13.128906 C 36.601562 13.472656 35.929688 13.898438 36.378906 14.476562 C 36.832031 15.058594 37.980469 15.925781 38.757812 16.378906 C 39.535156 16.832031 40.289062 16.984375 40.984375 17.171875 C 41.679688 17.355469 42.285156 17.515625 42.917969 17.488281 C 43.546875 17.460938 44.121094 17.28125 44.699219 17.011719 C 45.277344 16.746094 45.84375 16.371094 46.332031 15.902344 C 46.824219 15.433594 47.339844 14.886719 47.597656 14.238281 C 47.855469 13.59375 47.769531 13 47.820312 12.179688 C 47.867188 11.359375 47.894531 10.160156 47.894531 9.328125 C 47.894531 8.492188 47.917969 7.789062 47.820312 7.1875 C 47.71875 6.585938 47.488281 6.144531 47.300781 5.761719 C 47.113281 5.375 46.96875 5.050781 46.707031 4.886719 C 46.441406 4.726562 46.101562 4.863281 45.886719 4.886719 C 45.675781 4.914062 45.710938 5.273438 45.441406 5.046875 C 45.171875 4.820312 44.789062 4.035156 44.476562 3.699219 C 44.164062 3.367188 43.921875 3.175781 43.585938 3.066406 C 43.25 2.957031 42.90625 3.039062 42.546875 3.066406 C 42.1875 3.09375 41.785156 3.238281 41.429688 3.222656 C 41.078125 3.210938 41.011719 3.183594 40.464844 2.988281 C 39.921875 2.789062 38.867188 2.3125 38.164062 2.035156 C 37.457031 1.757812 36.914062 1.519531 36.230469 1.324219 C 35.550781 1.125 34.871094 0.964844 34.078125 0.847656 C 33.285156 0.726562 32.332031 0.648438 31.476562 0.609375 C 30.621094 0.570312 29.792969 0.597656 28.953125 0.609375 C 28.109375 0.621094 27.238281 0.570312 26.425781 0.6875 C 25.617188 0.808594 24.890625 1.109375 24.125 1.324219 C 23.726562 1.613281 23.273438 1.859375 22.9375 2.195312 C 22.597656 2.527344 22.378906 2.839844 22.117188 3.304688 C 21.855469 3.769531 21.539062 4.515625 21.375 4.96875 C 21.214844 5.417969 21.382812 5.613281 21.152344 5.996094 C 20.921875 6.382812 20.609375 6.59375 20.039062 7.1875 C 19.46875 7.78125 18.589844 8.613281 17.734375 9.5625 C 16.882812 10.515625 15.980469 11.703125 14.914062 12.890625 C 13.847656 14.082031 12.5625 15.308594 11.347656 16.695312 C 10.132812 18.082031 8.847656 19.601562 7.632812 21.214844 C 6.417969 22.824219 4.902344 24.914062 4.070312 26.363281 C 3.234375 27.8125 3.042969 28.847656 2.65625 29.851562 C 2.273438 30.855469 1.964844 31.65625 1.765625 32.386719 C 1.566406 33.117188 1.554688 33.613281 1.46875 34.210938 C 1.382812 34.804688 1.445312 35.308594 1.246094 35.953125 C 1.046875 36.59375 0.480469 37.398438 0.28125 38.011719 C 0.078125 38.628906 0.0195312 39.105469 0.0585938 39.597656 C 0.0976562 40.089844 0.253906 40.53125 0.503906 40.867188 C 0.75 41.199219 1.058594 41.289062 1.46875 41.5 C 1.878906 41.710938 2.460938 41.921875 2.953125 42.132812 C 3.152344 42.425781 3.398438 42.710938 3.546875 43.003906 C 3.699219 43.300781 3.664062 43.617188 3.847656 43.878906 C 4.027344 44.136719 4.117188 44.21875 4.589844 44.511719 C 5.0625 44.804688 5.949219 45.277344 6.667969 45.621094 C 7.386719 45.964844 8.003906 46.164062 8.898438 46.570312 C 9.789062 46.980469 10.738281 47.324219 12.015625 48.078125 C 13.292969 48.832031 15.335938 50.296875 16.546875 51.089844 C 17.761719 51.882812 18.207031 52.222656 19.296875 52.832031 C 20.386719 53.441406 21.746094 54.179688 23.085938 54.734375 C 24.425781 55.289062 25.894531 55.765625 27.316406 56.160156 C 28.742188 56.558594 30.1875 56.914062 31.625 57.109375 C 33.066406 57.308594 34.640625 57.402344 35.933594 57.347656 C 37.230469 57.296875 38.523438 56.941406 39.351562 56.792969 C 40.179688 56.648438 40.515625 56.433594 40.910156 56.476562 C 41.304688 56.519531 41.335938 56.34375 41.503906 57.03125 C 41.671875 57.722656 41.753906 58.972656 41.878906 60.441406 C 42 61.90625 42 64.054688 42.25 65.828125 C 42.496094 67.601562 42.867188 69.285156 43.363281 71.058594 C 44.164062 73.925781 45.097656 76.925781 46.855469 79.300781 C 47.785156 80.558594 49.675781 82.757812 50.789062 83.976562 C 51.90625 85.191406 52.789062 85.683594 53.539062 86.589844 C 54.289062 87.496094 54.6875 88.292969 55.246094 89.363281 C 55.804688 90.4375 56.3125 91.792969 56.882812 93.007812 C 57.449219 94.222656 58.121094 95.503906 58.664062 96.65625 C 59.210938 97.804688 59.65625 98.792969 60.148438 99.902344 C 60.644531 101.011719 61.261719 102.265625 61.636719 103.3125 C 62.332031 105.273438 63 107.210938 63.714844 109.175781 C 64.039062 110.0625 64.257812 110.925781 64.308594 111.472656 C 64.359375 112.023438 64.273438 111.878906 64.011719 112.34375 C 63.75 112.8125 63.003906 113.523438 62.75 114.246094 C 62.492188 114.96875 62.589844 115.792969 62.527344 116.546875 C 62.464844 117.296875 62.617188 117.929688 62.378906 118.765625 C 62.136719 119.597656 61.523438 120.558594 61.117188 121.457031 C 60.707031 122.355469 60.1875 123.355469 59.925781 124.152344 C 59.664062 124.949219 59.691406 125.300781 59.554688 126.214844 C 59.417969 127.125 59.285156 128.589844 59.109375 129.621094 C 58.765625 131.65625 58.152344 133.578125 57.625 135.5625 C 57.390625 136.449219 57.414062 136.582031 57.105469 137.703125 C 56.792969 138.828125 56.226562 140.820312 55.765625 142.300781 C 55.308594 143.777344 54.800781 145.324219 54.355469 146.578125 C 53.910156 147.832031 53.539062 148.664062 53.09375 149.828125 C 52.648438 150.988281 52.042969 152.523438 51.683594 153.550781 C 51.324219 154.582031 51.210938 154.886719 50.9375 156.007812 C 50.667969 157.132812 50.308594 158.714844 50.046875 160.289062 C 49.789062 161.859375 49.601562 163.722656 49.378906 165.4375 C 49.402344 166.917969 49.367188 168.5 49.453125 169.878906 C 49.539062 171.253906 49.726562 172.738281 49.898438 173.679688 C 50.074219 174.625 50.308594 174.816406 50.492188 175.503906 C 50.679688 176.191406 50.949219 176.988281 51.011719 177.800781 C 51.074219 178.617188 51.039062 179.144531 50.863281 180.335938 C 50.691406 181.527344 50.171875 183.8125 49.972656 184.933594 C 49.777344 186.054688 49.726562 186.464844 49.675781 187.074219 C 49.625 187.683594 49.703125 188.128906 49.675781 188.578125 C 49.652344 189.027344 49.628906 189.367188 49.527344 189.765625 C 49.429688 190.167969 49.347656 190.539062 49.082031 190.957031 C 48.816406 191.371094 48.289062 191.828125 47.96875 192.222656 C 47.644531 192.621094 47.484375 192.910156 47.152344 193.332031 C 46.816406 193.757812 46.308594 194.285156 45.960938 194.761719 C 45.613281 195.238281 45.441406 195.617188 45.070312 196.1875 C 44.699219 196.753906 44.09375 197.515625 43.734375 198.167969 C 43.375 198.816406 43.175781 199.394531 42.917969 200.070312 C 42.65625 200.742188 42.421875 201.496094 42.175781 202.210938 C 42.027344 203.054688 41.851562 203.925781 41.726562 204.746094 C 41.605469 205.5625 41.480469 206.316406 41.429688 207.121094 C 41.382812 207.929688 41.417969 208.707031 41.429688 209.578125 C 41.460938 211.542969 41.546875 213.488281 41.726562 215.441406 C 42.039062 218.804688 42.53125 222.148438 42.84375 225.507812 C 42.941406 226.578125 42.917969 227.117188 42.917969 228.121094 C 42.917969 229.125 42.917969 230.289062 42.84375 231.53125 C 42.769531 232.773438 42.65625 234.300781 42.472656 235.570312 C 42.285156 236.839844 42.050781 237.972656 41.726562 239.136719 C 41.40625 240.300781 41 241.558594 40.539062 242.542969 C 40.078125 243.527344 39.894531 244.039062 38.980469 245 C 38.066406 245.960938 36.378906 247.128906 35.117188 248.25 C 33.855469 249.375 32.320312 250.839844 31.402344 251.738281 C 30.488281 252.636719 30.152344 253.058594 29.621094 253.640625 C 29.089844 254.21875 28.621094 254.609375 28.210938 255.222656 C 26.710938 257.453125 26.265625 259.140625 28.414062 261.546875 C 29.367188 262.613281 30.078125 263.765625 31.386719 264.640625 C 34.199219 266.523438 35.304688 266.535156 38.238281 264.972656 C 39.550781 264.269531 40.289062 264.3125 41.429688 263.070312 C 42.003906 262.445312 42.769531 261.378906 43.289062 260.691406 C 43.808594 260.003906 44.027344 259.542969 44.550781 258.949219 C 45.074219 258.351562 45.761719 257.695312 46.40625 257.125 C 48.398438 255.371094 48.824219 254.460938 50.269531 252.132812 C 50.878906 251.152344 51.691406 250.609375 52.054688 249.675781 C 52.414062 248.742188 52.3125 247.578125 52.351562 246.746094 C 52.386719 245.910156 52.375 245.558594 52.277344 244.683594 C 52.175781 243.8125 51.84375 243.363281 51.757812 241.515625 C 51.667969 239.667969 51.980469 237.378906 52.796875 234.859375 C 53.144531 233.789062 53.390625 233.050781 53.835938 232.003906 C 54.28125 230.960938 54.925781 229.617188 55.46875 228.597656 C 56.015625 227.578125 56.523438 226.789062 57.105469 225.902344 C 57.6875 225.019531 58.328125 224.210938 58.960938 223.289062 C 59.59375 222.363281 60.308594 221.28125 60.890625 220.355469 C 61.472656 219.429688 62.03125 218.5625 62.453125 217.742188 C 62.875 216.921875 63.179688 216.199219 63.417969 215.441406 C 63.65625 214.6875 63.789062 214.046875 63.863281 213.222656 C 63.9375 212.402344 63.863281 211.453125 63.863281 210.53125 C 63.863281 209.605469 63.839844 208.613281 63.863281 207.675781 C 63.886719 206.738281 63.925781 205.722656 64.011719 204.902344 C 64.097656 204.082031 64.246094 203.515625 64.382812 202.761719 C 64.519531 202.011719 64.65625 201.089844 64.828125 200.386719 C 65.003906 199.683594 65.164062 199.171875 65.421875 198.5625 C 65.683594 197.953125 66.054688 197.347656 66.390625 196.742188 C 66.722656 196.132812 67.042969 195.511719 67.429688 194.917969 C 67.8125 194.324219 68.28125 193.808594 68.691406 193.175781 C 69.101562 192.539062 69.433594 191.933594 69.878906 191.113281 C 70.324219 190.296875 70.992188 189.125 71.367188 188.261719 C 71.738281 187.398438 71.886719 186.742188 72.109375 185.964844 C 72.332031 185.183594 72.46875 184.394531 72.703125 183.585938 C 72.9375 182.78125 73.222656 181.859375 73.519531 181.128906 C 73.816406 180.402344 74.101562 179.953125 74.484375 179.226562 C 74.871094 178.5 75.363281 177.472656 75.824219 176.769531 C 76.28125 176.066406 76.640625 175.78125 77.234375 175.027344 C 77.828125 174.273438 78.757812 173.058594 79.386719 172.253906 C 80.019531 171.449219 80.527344 170.828125 81.023438 170.195312 C 81.515625 169.558594 81.925781 169.097656 82.359375 168.449219 C 82.792969 167.800781 83.289062 166.917969 83.621094 166.3125 C 83.957031 165.703125 84.117188 165.308594 84.363281 164.804688 L 85.109375 163.695312 L 85.554688 164.011719 C 85.851562 164.964844 86.121094 165.714844 86.445312 166.867188 C 86.765625 168.015625 87.296875 169.789062 87.484375 170.90625 C 87.671875 172.023438 87.472656 172.6875 87.558594 173.523438 C 87.644531 174.355469 87.84375 175.042969 88.003906 175.898438 C 88.164062 176.757812 88.324219 177.878906 88.523438 178.671875 C 88.722656 179.46875 89.007812 180.007812 89.191406 180.65625 C 89.378906 181.300781 89.640625 181.941406 89.640625 182.554688 C 89.640625 183.171875 89.390625 183.320312 89.191406 184.21875 C 88.996094 185.117188 88.585938 187.03125 88.449219 187.945312 C 88.3125 188.859375 88.363281 189.132812 88.375 189.6875 C 88.386719 190.246094 88.476562 190.769531 88.523438 191.273438 C 88.574219 191.773438 88.6875 192.234375 88.671875 192.699219 C 88.660156 193.167969 88.664062 193.460938 88.449219 194.046875 C 88.238281 194.632812 88.003906 195.078125 87.410156 196.1875 C 86.816406 197.296875 85.492188 199.5 84.886719 200.703125 C 84.277344 201.90625 84.289062 202.144531 83.769531 203.398438 C 83.25 204.652344 82.296875 206.738281 81.765625 208.230469 C 81.230469 209.726562 80.8125 211.15625 80.578125 212.351562 C 80.339844 213.546875 80.242188 213.875 80.355469 215.363281 C 80.464844 216.851562 81.023438 219.695312 81.246094 221.226562 C 81.46875 222.757812 81.605469 223.3125 81.691406 224.554688 C 81.777344 225.800781 81.890625 227.308594 81.765625 228.675781 C 81.640625 230.046875 81.296875 231.367188 80.949219 232.71875 C 80.25 235.433594 79.320312 238.230469 78.421875 240.878906 C 78 242.121094 77.457031 243.390625 77.160156 244.207031 C 76.863281 245.027344 76.898438 245.039062 76.640625 245.792969 C 76.378906 246.546875 75.800781 247.964844 75.601562 248.726562 C 75.335938 249.722656 75.464844 250.796875 75.527344 251.816406 C 75.5625 252.421875 75.601562 253.386719 75.675781 253.957031 C 75.75 254.527344 75.792969 254.832031 75.972656 255.222656 C 76.148438 255.613281 76.375 255.933594 76.714844 256.253906 C 77.054688 256.574219 77.328125 256.921875 77.976562 257.125 C 78.625 257.328125 79.585938 257.363281 80.503906 257.441406 C 81.417969 257.523438 82.46875 257.507812 83.472656 257.601562 C 84.476562 257.695312 85.484375 257.71875 86.519531 257.996094 C 87.554688 258.277344 88.679688 258.71875 89.640625 259.265625 C 90.601562 259.8125 91.667969 260.796875 92.238281 261.246094 C 92.808594 261.695312 92.703125 261.769531 93.054688 261.960938 C 93.410156 262.148438 93.859375 262.261719 94.320312 262.355469 C 94.777344 262.449219 95.320312 262.460938 95.804688 262.515625 C 96.285156 262.566406 96.839844 262.578125 97.214844 262.671875 C 97.589844 262.765625 97.6875 262.882812 98.03125 263.070312 C 98.378906 263.253906 98.832031 263.597656 99.296875 263.78125 C 99.757812 263.96875 100.242188 264.136719 100.78125 264.179688 C 101.320312 264.21875 101.871094 264.085938 102.488281 264.019531 C 103.109375 263.953125 103.925781 263.972656 104.496094 263.78125 C 105.066406 263.59375 105.183594 263.410156 105.554688 263.132812 C 105.925781 262.851562 106.109375 262.425781 106.503906 262.25 C 106.902344 262.070312 107.382812 262.003906 107.660156 261.625 C 108.625 260.300781 108.472656 258.8125 107.9375 257.257812 C 107.695312 256.5625 106.785156 255.949219 105.90625 255.621094 C 105.027344 255.289062 103.679688 254.855469 102.785156 254.589844 C 101.894531 254.324219 101.175781 254.378906 100.558594 254.035156 C 99.941406 253.691406 99.667969 253.070312 99.222656 252.609375 C 98.773438 252.144531 98.457031 251.726562 97.882812 251.261719 C 97.3125 250.796875 96.523438 250.308594 95.804688 249.835938 C 95.085938 249.359375 94.28125 248.882812 93.574219 248.410156 C 92.871094 247.933594 92.226562 247.472656 91.570312 246.980469 C 90.914062 246.492188 90.0625 245.847656 89.640625 245.476562 C 89.214844 245.105469 89.183594 245.0625 89.042969 244.761719 C 88.902344 244.464844 88.820312 244.136719 88.820312 243.734375 C 88.820312 243.328125 88.871094 243.125 89.042969 242.386719 C 89.21875 241.644531 89.414062 240.566406 89.863281 239.296875 C 90.308594 238.023438 90.914062 236.511719 91.71875 234.777344 C 92.523438 233.046875 93.585938 230.9375 94.691406 228.914062 C 96.519531 225.558594 98.5625 222.9375 100.632812 219.878906 C 101.378906 218.78125 102.273438 217.34375 102.785156 216.078125 C 103.300781 214.808594 103.441406 213.59375 103.675781 212.351562 C 103.914062 211.109375 104.074219 209.816406 104.199219 208.628906 C 104.320312 207.4375 104.371094 206.039062 104.421875 205.21875 C 104.46875 204.402344 104.457031 204.28125 104.496094 203.714844 C 104.53125 203.144531 104.441406 202.488281 104.644531 201.8125 C 104.84375 201.136719 105.234375 200.457031 105.683594 199.753906 C 106.128906 199.046875 106.882812 198.246094 107.316406 197.613281 C 107.75 196.976562 107.960938 196.652344 108.28125 195.949219 C 108.605469 195.246094 109 194.394531 109.25 193.414062 C 109.496094 192.429688 109.65625 191.128906 109.769531 190.085938 C 109.878906 189.039062 109.816406 188 109.917969 187.152344 C 110.015625 186.304688 110.203125 185.738281 110.363281 185.011719 C 110.523438 184.285156 110.59375 183.503906 110.882812 182.792969 C 111.171875 182.085938 111.625 181.632812 112.070312 180.8125 C 112.515625 179.992188 112.972656 178.859375 113.558594 177.878906 C 114.140625 176.902344 115.015625 175.742188 115.5625 174.949219 C 116.105469 174.15625 116.378906 173.800781 116.824219 173.125 C 117.269531 172.453125 117.816406 171.621094 118.238281 170.90625 C 118.65625 170.191406 119.0625 169.550781 119.351562 168.847656 C 119.636719 168.140625 119.785156 167.355469 119.945312 166.707031 C 120.105469 166.058594 120.242188 165.707031 120.316406 164.964844 C 120.390625 164.21875 120.402344 163.15625 120.390625 162.269531 C 120.378906 161.382812 120.292969 160.910156 120.242188 159.652344 C 120.191406 158.398438 120.128906 155.980469 120.09375 154.742188 C 120.039062 152.960938 119.882812 151.5 119.574219 149.75 C 119.34375 148.441406 119.230469 147.363281 119.277344 146.023438 C 119.300781 145.269531 119.386719 144.332031 119.425781 143.488281 C 119.460938 142.640625 119.523438 142.035156 119.5 140.953125 C 119.472656 139.867188 119.398438 138.46875 119.277344 136.988281 C 119.152344 135.511719 119.066406 133.707031 118.757812 132.078125 C 118.445312 130.445312 117.929688 128.6875 117.417969 127.242188 C 116.910156 125.796875 116.167969 124.378906 115.710938 123.4375 C 114.851562 121.679688 114.835938 121.410156 114.523438 119.476562 C 114.398438 118.707031 114.1875 117.789062 113.929688 117.019531 C 113.667969 116.25 113.296875 115.527344 112.960938 114.878906 C 112.628906 114.230469 112.234375 113.574219 111.921875 113.136719 C 111.199219 112.121094 111.042969 111.867188 110.585938 110.601562 C 110.039062 109.082031 109.84375 108.683594 109.84375 107.035156 L 109.472656 104.976562 C 109.148438 104.183594 108.753906 103.3125 108.503906 102.597656 C 108.257812 101.882812 108.097656 101.371094 107.984375 100.695312 C 107.875 100.019531 107.835938 99.429688 107.835938 98.554688 C 107.835938 97.683594 107.898438 96.351562 107.984375 95.464844 C 108.125 94.054688 108.304688 91.96875 109.027344 90.789062 C 109.90625 89.355469 112.292969 86.300781 113.558594 84.765625 C 114.820312 83.234375 115.5625 82.707031 116.601562 81.597656 C 117.640625 80.488281 118.914062 79.25 119.796875 78.109375 C 120.679688 76.96875 121.4375 75.746094 121.875 74.78125 C 122.316406 73.816406 122.222656 73.199219 122.394531 72.40625 L 122.246094 69.871094 L 122.097656 68.203125 L 122.617188 68.125 L 124.847656 69.15625 C 125.863281 69.527344 127.011719 70 127.894531 70.265625 C 129.808594 70.839844 132.4375 71.144531 133.984375 71.214844 C 135.53125 71.289062 135.839844 71.125 136.804688 71.058594 C 137.773438 70.992188 138.800781 70.9375 139.777344 70.820312 C 140.757812 70.699219 141.667969 70.625 142.675781 70.34375 C 143.683594 70.066406 144.765625 69.550781 145.792969 69.15625 C 146.820312 68.757812 148.003906 68.390625 148.839844 67.96875 C 149.675781 67.542969 150.300781 66.949219 150.769531 66.621094 C 151.933594 65.804688 152.113281 66.117188 153.519531 66.066406 C 154.265625 66.039062 155.285156 65.988281 156.121094 65.828125 C 156.953125 65.667969 157.789062 65.367188 158.496094 65.113281 C 159.203125 64.863281 159.707031 64.640625 160.351562 64.320312 C 160.996094 64.003906 161.710938 63.648438 162.359375 63.210938 C 163.003906 62.773438 163.800781 62.152344 164.214844 61.707031 C 164.632812 61.261719 164.707031 60.992188 164.808594 60.597656 C 164.914062 60.203125 164.847656 59.820312 164.808594 59.410156 C 164.773438 58.996094 164.648438 58.710938 164.585938 58.140625 C 164.527344 57.570312 164.511719 56.714844 164.4375 56 C 164.363281 55.289062 164.179688 54.894531 164.140625 53.863281 C 164.105469 52.828125 164.191406 51.023438 164.214844 49.820312 C 164.242188 48.617188 164.300781 47.601562 164.289062 46.648438 C 164.277344 45.699219 164.277344 44.976562 164.140625 44.113281 C 164.003906 43.25 163.785156 42.363281 163.472656 41.5 C 163.164062 40.636719 162.695312 39.742188 162.285156 38.964844 C 161.875 38.183594 161.441406 37.535156 161.023438 36.824219 C 160.328125 35.6875 159.441406 34.386719 158.941406 33.417969 C 158.445312 32.449219 158.421875 32.042969 158.050781 31.039062 C 157.679688 30.035156 157.121094 28.554688 156.714844 27.394531 C 156.304688 26.230469 155.921875 25.042969 155.597656 24.066406 C 155.277344 23.089844 154.980469 22.3125 154.78125 21.53125 C 154.582031 20.75 154.535156 20.023438 154.410156 19.390625 C 154.289062 18.757812 154.375 18.199219 154.039062 17.726562 C 153.703125 17.253906 153.042969 16.988281 152.554688 16.773438 C 152.066406 16.5625 151.554688 16.511719 151.144531 16.457031 C 150.730469 16.40625 150.507812 16.566406 150.101562 16.457031 C 149.699219 16.351562 149.484375 16.128906 148.765625 15.824219 C 148.046875 15.519531 146.511719 14.914062 145.792969 14.636719 C 145.078125 14.359375 144.890625 14.214844 144.457031 14.160156 C 144.027344 14.105469 143.660156 14.402344 143.269531 14.316406 C 142.878906 14.234375 142.613281 13.871094 142.230469 13.683594 C 141.84375 13.5 141.386719 13.261719 140.964844 13.207031 C 140.546875 13.15625 140.21875 13.394531 139.777344 13.367188 C 139.339844 13.339844 138.824219 13.128906 138.367188 13.050781 C 137.90625 12.972656 137.371094 12.878906 137.03125 12.890625 C 136.6875 12.90625 136.613281 12.984375 136.359375 13.128906 C 136.109375 13.277344 135.96875 13.734375 135.542969 13.761719 C 135.117188 13.792969 134.46875 13.382812 134.058594 13.289062 C 133.648438 13.195312 133.386719 13.152344 133.09375 13.207031 C 132.796875 13.265625 132.601562 13.375 132.351562 13.605469 C 132.097656 13.835938 131.796875 14.207031 131.605469 14.554688 C 131.417969 14.90625 131.359375 15.257812 131.234375 15.664062 C 131.113281 16.074219 131 16.5625 130.863281 17.011719 C 130.726562 17.460938 130.617188 17.921875 130.417969 18.359375 C 130.21875 18.796875 129.863281 19.1875 129.675781 19.628906 C 129.488281 20.066406 129.34375 20.59375 129.304688 20.976562 C 129.265625 21.355469 129.3125 21.546875 129.453125 21.847656 C 129.59375 22.148438 129.949219 22.453125 130.121094 22.71875 C 130.296875 22.984375 130.308594 23.113281 130.492188 23.429688 C 130.679688 23.75 130.957031 24.320312 131.234375 24.621094 C 131.515625 24.917969 131.890625 24.972656 132.128906 25.175781 C 132.367188 25.375 132.246094 25.695312 132.648438 25.808594 C 133.050781 25.921875 133.941406 25.605469 134.355469 25.808594 C 134.769531 26.015625 134.496094 26.582031 134.726562 26.839844 C 134.957031 27.097656 135.25 27.179688 135.617188 27.234375 C 135.988281 27.289062 136.507812 27.277344 136.882812 27.15625 C 137.253906 27.03125 137.382812 26.683594 137.773438 26.523438 C 138.164062 26.359375 138.574219 26.285156 139.183594 26.207031 C 139.792969 26.125 140.867188 26.074219 141.410156 26.046875 C 141.957031 26.019531 142.132812 26.128906 142.453125 26.046875 C 142.769531 25.964844 143.007812 25.691406 143.269531 25.570312 C 143.53125 25.453125 143.671875 25.230469 144.011719 25.332031 C 144.351562 25.433594 144.828125 25.679688 145.125 26.125 C 145.425781 26.570312 145.511719 27.222656 145.71875 27.871094 C 145.929688 28.515625 146.324219 29.171875 146.390625 30.007812 C 146.453125 30.847656 146.277344 31.777344 146.089844 32.78125 C 145.90625 33.789062 145.585938 34.910156 145.273438 36.03125 C 144.964844 37.15625 144.496094 38.472656 144.234375 39.519531 C 143.972656 40.5625 143.851562 41.484375 143.714844 42.292969 C 143.578125 43.097656 143.515625 43.664062 143.417969 44.351562 L 143.417969 45.621094 C 142.722656 45.222656 142.09375 44.800781 141.335938 44.429688 C 140.582031 44.0625 139.730469 43.707031 138.886719 43.402344 C 138.042969 43.097656 137.199219 42.742188 136.285156 42.609375 C 135.375 42.476562 134.335938 42.375 133.464844 42.609375 C 132.59375 42.839844 131.980469 43.453125 131.234375 43.957031 C 130.492188 44.457031 129.820312 45.390625 129.007812 45.621094 C 128.191406 45.847656 127.871094 45.515625 126.703125 45.222656 C 125.539062 44.933594 123.5 44.324219 122.023438 43.875 C 120.550781 43.429688 119.121094 42.808594 117.867188 42.53125 C 116.609375 42.25 115.554688 42.238281 114.523438 42.210938 C 113.492188 42.1875 112.84375 42.1875 111.699219 42.371094 C 110.558594 42.554688 108.867188 43.085938 107.6875 43.320312 C 106.511719 43.558594 105.488281 43.746094 104.644531 43.796875 C 103.796875 43.851562 103.304688 43.691406 102.636719 43.640625 C 101.894531 43.296875 101.195312 43.128906 100.410156 42.609375 C 99.625 42.089844 98.738281 41.222656 97.957031 40.546875 C 97.207031 39.898438 95.035156 38.527344 94.914062 37.457031 C 94.796875 36.449219 94.960938 33.746094 95.0625 32.78125 C 95.160156 31.820312 95.273438 32.226562 95.507812 31.753906 C 95.742188 31.277344 95.890625 30.578125 96.472656 29.929688 C 97.054688 29.28125 98.355469 28.425781 98.925781 27.949219 C 99.492188 27.472656 99.675781 27.347656 99.890625 27.078125 C 100.105469 26.804688 100.125 26.683594 100.1875 26.363281 C 100.25 26.042969 100.160156 25.53125 100.261719 25.175781 C 100.363281 24.820312 100.558594 24.671875 100.78125 24.304688 C 101.003906 23.933594 101.375 23.476562 101.597656 22.957031 C 101.824219 22.4375 101.992188 21.824219 102.117188 21.210938 C 102.242188 20.601562 102.328125 19.84375 102.339844 19.3125 C 102.351562 18.777344 102.191406 18.402344 102.191406 18.042969 C 102.191406 17.683594 102.238281 17.441406 102.339844 17.171875 C 102.441406 16.902344 102.710938 16.800781 102.785156 16.457031 C 102.863281 16.113281 102.863281 15.695312 102.785156 15.191406 C 102.710938 14.683594 102.515625 13.878906 102.339844 13.445312 C 102.164062 13.015625 101.957031 12.972656 101.746094 12.652344 C 101.535156 12.335938 101.324219 11.941406 101.078125 11.542969 C 100.832031 11.148438 100.472656 10.773438 100.261719 10.277344 C 100.046875 9.78125 100.089844 9.238281 99.816406 8.613281 C 99.539062 7.988281 99.089844 7.164062 98.625 6.550781 C 98.164062 5.941406 97.539062 5.457031 97.066406 4.96875 C 96.597656 4.480469 96.378906 4.074219 95.804688 3.621094 C 95.230469 3.167969 94.570312 2.710938 93.648438 2.273438 C 92.730469 1.835938 91.261719 1.296875 90.308594 1.003906 C 89.351562 0.714844 88.761719 0.648438 87.929688 0.53125 C 87.101562 0.410156 86.210938 0.34375 85.332031 0.292969 C 84.453125 0.238281 83.671875 0.199219 82.65625 0.210938 C 81.640625 0.226562 80.144531 0.292969 79.238281 0.371094 C 78.335938 0.449219 77.753906 0.582031 77.234375 0.6875 C 76.714844 0.792969 76.460938 0.816406 76.121094 1.003906 C 75.777344 1.195312 75.5 1.574219 75.230469 1.796875 C 74.957031 2.023438 74.746094 2.253906 74.484375 2.351562 C 74.226562 2.449219 74.113281 2.351562 73.742188 2.351562 Z M 73.742188 2.351562 " fill-opacity="1" fill-rule="nonzero"/></g><g clip-path="url(#c6a67942d0)"><path fill="#000000" d="M 66.484375 94.175781 C 66.460938 93.90625 66.496094 93.699219 66.355469 93.363281 C 66.214844 93.03125 66.042969 92.667969 65.65625 92.214844 C 65.273438 91.757812 64.558594 91.152344 64.070312 90.65625 C 63.585938 90.160156 63.101562 89.554688 62.738281 89.234375 C 62.375 88.917969 62.183594 88.820312 61.914062 88.761719 C 61.644531 88.703125 61.367188 88.691406 61.214844 88.898438 C 61.074219 89.085938 61.210938 90.335938 61.277344 90.589844 C 61.363281 90.910156 61.480469 91.3125 61.722656 91.605469 C 61.964844 91.898438 62.347656 92.042969 62.675781 92.28125 C 63.003906 92.519531 63.332031 92.722656 63.691406 93.027344 C 64.050781 93.332031 64.523438 93.769531 64.832031 94.109375 C 65.140625 94.449219 65.296875 94.742188 65.53125 95.058594 L 65.847656 95.597656 C 66 95.582031 66.179688 95.664062 66.304688 95.542969 C 66.429688 95.421875 66.453125 95.21875 66.484375 94.988281 C 66.511719 94.757812 66.503906 94.449219 66.484375 94.175781 Z M 66.484375 94.175781 " fill-opacity="1" fill-rule="nonzero"/></g><g clip-path="url(#844805a00a)"><path fill="#000000" d="M 86.304688 96.101562 C 86.1875 95.695312 86.195312 95.238281 85.949219 94.882812 C 85.703125 94.527344 85.308594 94.332031 84.914062 94.082031 C 84.519531 93.832031 84.054688 93.601562 83.589844 93.394531 C 83.125 93.191406 82.535156 93.019531 82.125 92.863281 C 81.714844 92.703125 81.390625 92.605469 81.125 92.441406 C 80.859375 92.28125 80.671875 92.125 80.550781 91.910156 C 80.429688 91.691406 80.347656 91.460938 80.445312 91.222656 C 80.539062 90.984375 80.722656 90.757812 81.050781 90.652344 C 81.378906 90.542969 81.902344 90.519531 82.304688 90.613281 C 82.703125 90.703125 83 91.136719 83.375 91.183594 C 83.75 91.230469 84.164062 91.101562 84.410156 90.878906 C 84.660156 90.65625 84.773438 90.4375 84.699219 90.003906 C 84.621094 89.566406 84.433594 88.945312 83.984375 88.4375 C 83.535156 87.933594 82.65625 87.367188 82.089844 87.066406 C 81.519531 86.761719 81.246094 86.734375 80.625 86.648438 C 80 86.558594 79.148438 86.691406 78.371094 86.53125 C 77.59375 86.371094 76.769531 85.953125 76.011719 85.691406 C 75.253906 85.433594 74.507812 85.273438 73.832031 84.96875 C 73.15625 84.660156 72.539062 84.210938 71.972656 83.863281 C 71.40625 83.511719 70.984375 83.117188 70.4375 82.871094 C 69.886719 82.628906 69.191406 82.207031 68.71875 82.414062 C 68.25 82.621094 68.339844 83.167969 68.433594 83.75 C 68.527344 84.328125 68.898438 85.15625 69.257812 85.730469 C 69.613281 86.304688 70.160156 86.664062 70.542969 87.140625 C 70.925781 87.621094 71.390625 88.199219 71.542969 88.589844 C 71.699219 88.980469 71.515625 89.144531 71.402344 89.316406 C 71.285156 89.488281 71.242188 89.511719 70.9375 89.507812 C 70.628906 89.5 69.949219 89.195312 69.613281 89.277344 C 69.277344 89.359375 69.222656 89.625 69.222656 89.925781 C 69.222656 90.226562 69.171875 90.367188 69.613281 90.878906 C 70.058594 91.390625 70.949219 92.378906 71.832031 92.9375 C 72.710938 93.5 73.667969 93.828125 74.832031 94.195312 C 75.996094 94.566406 77.585938 94.894531 78.800781 95.148438 C 80.015625 95.402344 81.144531 95.59375 82.125 95.722656 C 83.101562 95.847656 84.054688 95.84375 84.660156 95.914062 C 85.269531 95.984375 85.402344 96.066406 85.769531 96.140625 Z M 86.304688 96.101562 " fill-opacity="1" fill-rule="nonzero"/></g><path fill="#000000" d="M 81.984375 85.277344 C 82.386719 85.085938 82.640625 84.941406 82.757812 84.523438 C 82.878906 84.101562 82.75 83.53125 82.628906 83.011719 C 82.414062 82.066406 81.851562 80.605469 81.277344 79.851562 C 80.902344 79.359375 80.421875 78.929688 79.828125 78.511719 C 79.234375 78.097656 78.425781 77.710938 77.738281 77.378906 C 76.347656 76.707031 74.96875 76.226562 73.457031 75.972656 C 72.507812 75.8125 70.878906 75.554688 70.304688 76.589844 C 69.847656 77.402344 69.800781 78.1875 70.078125 79.097656 C 70.285156 79.777344 71.09375 80.824219 71.527344 81.363281 C 71.875 81.800781 72.273438 82.25 72.75 82.667969 C 73.839844 83.632812 75.039062 84.308594 76.355469 84.867188 C 77.734375 85.449219 78.941406 85.71875 80.441406 85.621094 C 81.066406 85.582031 81.585938 85.46875 81.984375 85.277344 Z M 81.984375 85.277344 " fill-opacity="1" fill-rule="nonzero"/><g clip-path="url(#f7c87c6ef5)"><path fill="#000000" d="M 127.714844 46.632812 C 127.320312 47 127.136719 47.308594 126.523438 47.734375 C 125.914062 48.160156 124.808594 48.832031 124.066406 49.171875 C 123.320312 49.515625 122.703125 49.707031 122.082031 49.765625 C 120.40625 49.921875 119.761719 48.988281 118.585938 47.988281 C 118.320312 47.757812 118.03125 47.378906 117.714844 47.480469 C 117.394531 47.578125 117.386719 47.898438 117.238281 48.410156 C 117.089844 48.925781 117.152344 49.820312 116.839844 50.527344 C 116.53125 51.238281 115.984375 51.921875 115.414062 52.5625 C 114.839844 53.199219 114.195312 53.746094 113.429688 54.339844 C 112.660156 54.933594 111.523438 55.679688 110.808594 56.117188 C 110.09375 56.554688 109.65625 56.722656 109.140625 56.964844 C 108.625 57.203125 108.070312 57.308594 107.714844 57.558594 C 107.355469 57.804688 107.191406 58.152344 107.078125 58.402344 C 106.964844 58.65625 106.816406 58.894531 107.078125 58.996094 C 107.792969 59.269531 109.140625 58.375 109.855469 58.234375 C 110.265625 58.152344 112.824219 57.859375 112.792969 58.234375 C 112.742188 58.824219 112.679688 58.917969 111.445312 60.011719 C 110.207031 61.105469 107.160156 63.539062 105.410156 64.753906 C 103.660156 65.972656 102.492188 66.601562 100.964844 67.296875 C 98.242188 68.535156 95.679688 69.332031 92.710938 68.902344 C 90.960938 68.652344 89.617188 67.605469 88.34375 66.363281 C 87.867188 65.894531 87.691406 65.636719 87.550781 65.261719 C 87.410156 64.890625 87.375 64.589844 87.550781 64.246094 C 87.726562 63.902344 88.03125 63.644531 88.503906 63.398438 C 88.976562 63.15625 89.613281 63.046875 90.328125 62.808594 C 91.042969 62.566406 92.210938 62.261719 92.789062 61.960938 C 93.371094 61.65625 93.617188 61.398438 93.742188 61.027344 C 93.871094 60.65625 93.710938 60.371094 93.425781 60.097656 C 93.136719 59.820312 92.660156 59.578125 92.15625 59.503906 C 91.648438 59.429688 90.925781 59.617188 90.488281 59.671875 C 90.050781 59.730469 89.777344 59.910156 89.535156 59.84375 C 89.292969 59.773438 89.265625 59.535156 89.296875 59.335938 C 89.328125 59.132812 89.398438 59.027344 89.695312 58.828125 C 89.992188 58.625 90.59375 58.390625 91.042969 58.148438 C 92.5625 57.339844 93.066406 57.125 92.394531 55.183594 C 92.167969 54.535156 91.828125 53.496094 91.441406 52.730469 C 91.054688 51.964844 90.570312 51.222656 90.089844 50.613281 C 89.152344 49.417969 88.289062 48.8125 86.917969 48.328125 C 86.4375 48.15625 86.054688 48.234375 85.726562 48.070312 C 85.398438 47.910156 85.152344 47.714844 85.011719 47.394531 C 84.867188 47.074219 84.800781 46.652344 84.933594 46.292969 C 85.0625 45.9375 85.289062 45.695312 85.726562 45.445312 C 86.160156 45.199219 86.726562 45.011719 87.472656 44.855469 C 88.214844 44.699219 89.152344 44.613281 90.171875 44.515625 C 91.191406 44.417969 92.550781 44.289062 93.585938 44.261719 C 94.617188 44.234375 95.378906 44.21875 96.363281 44.347656 C 97.34375 44.472656 98.542969 44.753906 99.457031 45.023438 C 100.375 45.292969 101.214844 45.757812 101.839844 45.957031 C 102.464844 46.152344 102.628906 46.195312 103.1875 46.210938 C 105.269531 46.261719 105.761719 45.386719 107.554688 44.601562 C 108.527344 44.175781 109.824219 43.726562 110.96875 43.5 C 112.113281 43.273438 113.316406 43.230469 114.378906 43.246094 C 115.441406 43.257812 116.246094 43.386719 117.316406 43.585938 C 118.390625 43.78125 119.550781 44.007812 120.808594 44.429688 C 122.070312 44.855469 123.886719 45.796875 124.859375 46.125 C 125.828125 46.449219 126.023438 46.292969 126.605469 46.378906 Z M 127.714844 46.632812 " fill-opacity="1" fill-rule="nonzero"/></g><path fill="#000000" d="M 72.183594 5.929688 C 71.839844 5.890625 71.578125 6.089844 71.300781 6.398438 C 71.023438 6.710938 70.800781 7.371094 70.59375 7.71875 C 70.386719 8.066406 70.199219 8.203125 70.0625 8.472656 C 69.929688 8.742188 69.960938 8.863281 69.800781 9.320312 C 69.636719 9.777344 69.34375 10.636719 69.09375 11.203125 C 68.839844 11.769531 68.570312 12.371094 68.296875 12.710938 C 68.023438 13.054688 67.722656 13.027344 67.503906 13.183594 C 67.03125 13.519531 66.632812 14.25 66.882812 14.878906 C 66.980469 15.117188 67.304688 15.144531 67.414062 15.445312 C 67.523438 15.746094 67.632812 16.199219 67.503906 16.574219 C 67.375 16.953125 67.097656 17.246094 66.875 17.625 C 66.652344 18.007812 66.421875 18.449219 66.214844 18.9375 C 65.855469 19.78125 65.433594 20.488281 64.941406 21.285156 C 64.796875 21.519531 64.824219 21.746094 64.851562 21.945312 C 64.9375 22.480469 65.515625 22.464844 65.972656 22.433594 C 66.425781 22.402344 66.796875 22.078125 67.238281 21.945312 C 67.449219 21.882812 67.609375 21.878906 67.769531 21.945312 C 68.039062 22.0625 68.160156 22.492188 68.472656 22.605469 C 69.832031 23.097656 69.644531 22.214844 69.820312 22.03125 C 69.972656 21.867188 70.144531 21.914062 70.25 22.082031 C 70.351562 22.246094 70.300781 22.703125 70.242188 22.886719 C 70.179688 23.070312 70.128906 23.273438 69.886719 23.359375 C 69.644531 23.445312 69.257812 23.40625 68.914062 23.359375 C 68.574219 23.3125 68.164062 23.140625 67.855469 23.074219 C 67.546875 23.011719 67.269531 22.90625 67.0625 22.980469 C 66.835938 23.0625 66.667969 23.785156 66.621094 24.019531 C 66.5625 24.300781 66.457031 24.847656 66.441406 25.148438 C 66.433594 25.375 66.4375 25.933594 66.707031 25.996094 C 66.847656 26.03125 67.074219 25.996094 67.324219 25.996094 C 67.578125 25.996094 67.972656 25.980469 68.210938 25.996094 C 68.445312 26.011719 68.5625 26.074219 68.738281 26.089844 C 68.917969 26.105469 69.046875 26.136719 69.269531 26.089844 C 69.492188 26.042969 69.769531 25.757812 70.0625 25.808594 C 70.359375 25.859375 70.664062 26.164062 70.859375 26.375 C 71.054688 26.582031 71.195312 26.816406 71.210938 27.03125 C 71.230469 27.25 71.132812 27.414062 70.945312 27.503906 C 70.761719 27.59375 70.464844 27.550781 70.242188 27.503906 C 70.015625 27.457031 69.90625 27.285156 69.621094 27.222656 C 69.339844 27.15625 68.960938 27.207031 68.5625 27.128906 C 68.164062 27.046875 67.628906 26.78125 67.238281 26.75 C 66.847656 26.71875 66.496094 26.839844 66.265625 26.9375 C 66.035156 27.035156 65.949219 27.144531 65.914062 27.316406 C 65.828125 27.714844 66.203125 28.144531 66.53125 28.164062 C 66.816406 28.179688 67.398438 28.085938 67.679688 28.070312 C 67.960938 28.054688 68 28.023438 68.210938 28.070312 C 68.417969 28.117188 68.71875 28.207031 68.914062 28.351562 C 69.113281 28.5 69.382812 28.695312 69.355469 28.917969 C 69.339844 29.050781 67.390625 30.234375 66.972656 30.914062 C 66.554688 31.597656 66.433594 32.164062 66.882812 33.441406 C 67.332031 34.707031 68.679688 34.691406 69.886719 34.289062 C 70.625 34.042969 71.226562 33.640625 71.917969 33.535156 C 72.925781 33.382812 74.257812 33.339844 75.273438 33.25 C 75.996094 33.1875 76.660156 33.355469 77.21875 33.15625 C 77.980469 32.886719 78.984375 31.703125 79.25 30.894531 C 79.789062 29.253906 79.492188 28.328125 79.160156 26.75 C 79.027344 26.121094 78.867188 25.449219 78.808594 24.867188 C 78.730469 24.121094 78.589844 22.671875 79.335938 22.226562 C 79.773438 21.96875 80.613281 22.039062 81.191406 21.851562 C 81.769531 21.660156 82.277344 21.378906 82.78125 21.097656 C 83.28125 20.8125 83.824219 20.457031 84.195312 20.15625 C 84.5625 19.855469 84.804688 19.648438 84.988281 19.308594 C 85.171875 18.964844 85.269531 18.511719 85.253906 18.175781 C 85.238281 17.84375 85.039062 17.601562 84.898438 17.421875 C 84.761719 17.242188 84.582031 17.289062 84.457031 17.140625 C 84.335938 16.992188 84.160156 16.867188 84.195312 16.574219 C 84.226562 16.28125 84.488281 15.898438 84.636719 15.539062 C 85.015625 14.609375 85.234375 13.949219 85.164062 12.902344 C 85.136719 12.441406 85.183594 12.078125 84.898438 11.675781 C 84.617188 11.273438 84.066406 10.925781 83.574219 10.640625 C 82.355469 9.929688 80.8125 9.488281 79.511719 8.945312 L 75.007812 7.4375 C 74.4375 7.1875 72.640625 5.976562 72.183594 5.929688 Z M 72.183594 5.929688 " fill-opacity="1" fill-rule="nonzero"/><g clip-path="url(#81970a58c7)"><path fill="#000000" d="M 86.40625 21.996094 L 85.324219 22.25 C 84.722656 22.394531 83.972656 22.433594 83.402344 22.636719 C 82.84375 22.835938 80.964844 23.667969 80.761719 24.171875 C 80.660156 24.421875 80.585938 24.675781 80.566406 25.210938 C 80.519531 26.441406 80.65625 27.601562 80.519531 28.847656 C 80.472656 29.308594 80.410156 29.796875 80.339844 30.128906 C 80.269531 30.460938 80.222656 30.546875 80.101562 30.835938 C 79.84375 31.449219 79.601562 31.699219 79.679688 32.371094 C 79.941406 32.351562 80.15625 32.394531 80.460938 32.308594 C 80.765625 32.222656 81.109375 32.050781 81.480469 31.859375 C 81.851562 31.667969 82.339844 31.390625 82.683594 31.15625 C 83.023438 30.917969 83.347656 30.671875 83.523438 30.449219 C 83.808594 30.089844 83.847656 29.109375 83.941406 28.65625 C 84.023438 28.273438 83.980469 28.085938 84.183594 27.566406 C 84.382812 27.050781 84.84375 26.191406 85.144531 25.582031 C 85.445312 24.972656 85.8125 24.359375 85.984375 23.917969 C 86.203125 23.359375 86.253906 22.597656 86.40625 21.996094 Z M 86.40625 21.996094 " fill-opacity="1" fill-rule="nonzero"/></g><path fill="#000000" d="M 81.988281 37.21875 C 81.808594 37.109375 81.664062 36.851562 81.542969 36.597656 C 81.339844 36.175781 81.105469 35.382812 81.164062 34.90625 C 81.191406 34.664062 81.261719 34.476562 81.4375 34.320312 C 81.617188 34.160156 81.921875 34.113281 82.160156 34.027344 C 82.777344 33.808594 82.859375 33.671875 83.367188 33.328125 C 83.558594 33.199219 83.847656 33.074219 84.019531 33.035156 C 84.191406 32.996094 84.28125 32.964844 84.363281 33.109375 C 84.449219 33.25 84.4375 33.496094 84.433594 33.730469 C 84.410156 34.59375 84.019531 35.128906 83.574219 35.824219 C 83.445312 36.019531 83.273438 36.242188 83.125 36.414062 C 83.042969 36.503906 82.558594 37.15625 82.503906 37.183594 C 82.375 37.253906 82.171875 37.332031 81.988281 37.21875 Z M 81.988281 37.21875 " fill-opacity="1" fill-rule="nonzero"/><path fill="#000000" d="M 81.304688 43.28125 C 81.082031 43.113281 80.796875 42.976562 80.632812 42.777344 C 80.46875 42.578125 80.398438 42.367188 80.363281 42.132812 C 80.316406 41.816406 80.410156 41.148438 80.632812 40.910156 C 80.761719 40.769531 80.996094 40.515625 81.171875 40.621094 C 81.441406 40.78125 81.128906 41.804688 81.105469 42.058594 C 81.082031 42.277344 81.105469 42.394531 81.105469 42.5625 Z M 81.304688 43.28125 " fill-opacity="1" fill-rule="nonzero"/><path fill="#000000" d="M 79.015625 43.710938 C 79.015625 42.734375 78.683594 42.15625 77.9375 41.484375 C 77.722656 41.292969 77.472656 40.996094 77.128906 40.910156 C 76.671875 40.792969 75.746094 40.90625 75.378906 41.269531 C 75.210938 41.433594 75.078125 41.683594 75.042969 41.914062 C 75.003906 42.144531 75.011719 42.375 75.175781 42.5625 C 75.632812 43.085938 76.191406 42.808594 76.726562 42.921875 C 77.324219 43.050781 77.835938 43.320312 78.476562 43.425781 Z M 79.015625 43.710938 " fill-opacity="1" fill-rule="nonzero"/><g clip-path="url(#91d6a40e99)"><path fill="#000000" d="M 92.109375 26.648438 C 91.816406 26.929688 91.5 27.1875 91.222656 27.488281 C 90.621094 28.125 90.101562 28.851562 89.496094 29.496094 C 89.09375 29.921875 88.507812 30.375 88.03125 31 C 87.558594 31.628906 87.050781 32.484375 86.671875 33.234375 C 86.296875 33.980469 86.054688 34.644531 85.785156 35.464844 C 85.511719 36.285156 85.261719 37.277344 85.050781 38.140625 C 84.84375 39.007812 84.710938 39.832031 84.527344 40.652344 C 84.347656 41.46875 84.101562 42.472656 83.953125 43.050781 C 83.804688 43.628906 83.765625 43.84375 83.640625 44.109375 C 83.4375 44.546875 83.089844 44.917969 82.472656 45.027344 C 82.199219 45.078125 81.804688 44.925781 81.601562 45.058594 C 81.398438 45.191406 81.296875 45.386719 81.339844 45.617188 C 81.421875 46.058594 81.886719 46.566406 82.5 46.558594 C 83.832031 46.546875 84.109375 45.628906 84.582031 44.332031 C 84.785156 43.78125 85.191406 42.929688 85.574219 42.214844 C 85.957031 41.496094 86.410156 40.78125 86.882812 40.039062 C 87.351562 39.292969 87.960938 38.421875 88.398438 37.75 C 88.835938 37.082031 89.191406 36.542969 89.496094 36.023438 C 89.800781 35.5 89.992188 35.148438 90.230469 34.628906 C 90.464844 34.105469 90.691406 33.484375 90.910156 32.898438 C 91.125 32.3125 91.34375 31.753906 91.535156 31.113281 C 92.003906 29.550781 92.074219 28.277344 92.109375 26.648438 Z M 92.109375 26.648438 " fill-opacity="1" fill-rule="nonzero"/></g><path fill="#000000" d="M 71.925781 19.808594 C 71.878906 19.957031 71.761719 20.019531 71.628906 20.039062 C 71.492188 20.054688 71.363281 20.035156 71.199219 19.902344 C 71.039062 19.765625 70.890625 19.441406 70.6875 19.261719 C 70.484375 19.085938 70.226562 19.003906 70.003906 18.851562 C 69.78125 18.699219 69.523438 18.554688 69.363281 18.351562 C 69.203125 18.148438 69.128906 17.90625 69.0625 17.667969 C 69 17.429688 69.050781 17.164062 68.976562 16.9375 C 68.90625 16.710938 68.765625 16.519531 68.636719 16.34375 C 68.507812 16.167969 68.320312 16.078125 68.210938 15.890625 C 68.101562 15.703125 68.019531 15.46875 67.996094 15.25 C 67.972656 15.03125 68.007812 14.789062 68.082031 14.613281 C 68.15625 14.4375 68.308594 14.371094 68.421875 14.25 C 68.535156 14.128906 68.640625 13.96875 68.765625 13.882812 C 68.890625 13.796875 69 13.714844 69.148438 13.746094 C 69.300781 13.78125 69.449219 13.945312 69.578125 14.066406 C 69.949219 14.417969 69.878906 14.519531 70.429688 14.566406 C 70.609375 14.582031 70.769531 14.621094 70.988281 14.566406 C 71.71875 14.386719 72.554688 13.898438 73.296875 13.96875 C 73.625 14 73.902344 14.011719 74.234375 14.15625 C 74.5625 14.300781 74.859375 14.507812 75.171875 14.703125 C 75.488281 14.902344 75.871094 15.144531 76.113281 15.34375 C 76.527344 15.679688 76.929688 16.046875 77.351562 16.390625 C 77.566406 16.566406 77.777344 16.75 77.90625 16.9375 C 78.039062 17.125 78.085938 17.308594 78.121094 17.484375 C 78.15625 17.664062 78.1875 17.851562 78.121094 17.988281 C 78.054688 18.121094 77.996094 18.175781 77.78125 18.167969 C 77.5625 18.160156 77.144531 18 76.882812 17.941406 C 76.617188 17.878906 76.433594 17.855469 76.199219 17.804688 C 75.964844 17.75 75.742188 17.621094 75.472656 17.621094 C 75.203125 17.621094 74.824219 17.710938 74.617188 17.804688 C 73.859375 18.148438 73.847656 18.367188 72.953125 18.398438 C 72.710938 18.402344 72.457031 18.402344 72.269531 18.441406 C 72.082031 18.480469 71.945312 18.546875 71.839844 18.625 C 71.738281 18.703125 71.699219 18.730469 71.671875 18.898438 C 71.640625 19.0625 71.761719 19.046875 71.882812 19.261719 C 72.003906 19.480469 71.976562 19.660156 71.925781 19.808594 Z M 71.925781 19.808594 " fill-opacity="1" fill-rule="nonzero"/><path fill="#000000" d="M 75.808594 17.007812 C 75.578125 16.457031 75.527344 16.269531 75.230469 15.847656 C 74.933594 15.429688 74.429688 15.152344 74.023438 15.039062 C 73.617188 14.925781 73.164062 14.867188 72.832031 15.023438 C 72.5 15.175781 72.246094 15.324219 72.152344 15.574219 C 72.058594 15.824219 72.105469 16.066406 72.292969 16.246094 C 72.476562 16.421875 72.847656 16.34375 73.214844 16.328125 C 74.5 16.261719 74.710938 16.441406 75.808594 17.007812 Z M 75.808594 17.007812 " fill-opacity="1" fill-rule="nonzero"/><path fill="#000000" d="M 42.796875 16.414062 C 42.605469 16.082031 42.847656 15.476562 43.027344 15.25 C 43.230469 14.988281 43.660156 14.496094 43.996094 14.445312 C 44.289062 14.402344 45.054688 14.742188 45.167969 15.03125 C 45.242188 15.210938 45.328125 15.265625 45.273438 15.457031 C 45.144531 15.917969 44.5625 16.144531 44.058594 16.359375 C 43.566406 16.570312 42.902344 16.519531 42.796875 16.414062 Z M 42.796875 16.414062 " fill-opacity="1" fill-rule="nonzero"/><path fill="#000000" d="M 45.933594 6.109375 C 45.820312 6.199219 45.761719 6.40625 45.726562 6.554688 C 45.25 8.664062 44.828125 10.949219 44.519531 13.316406 C 44.464844 13.707031 44.933594 14.222656 45.246094 14.394531 C 46.039062 14.828125 46.765625 14.453125 46.945312 13.445312 C 47.355469 11.144531 47.234375 10.089844 47.21875 8.40625 C 47.210938 7.757812 47.285156 6.960938 46.960938 6.351562 C 46.851562 6.148438 46.628906 6.035156 46.402344 6.011719 C 46.253906 5.992188 46.046875 6.019531 45.933594 6.109375 Z M 45.933594 6.109375 " fill-opacity="1" fill-rule="nonzero"/><path fill="#000000" d="M 82.046875 77.792969 C 82.183594 77.761719 82.605469 77.855469 82.785156 77.65625 C 82.96875 77.453125 82.957031 77.078125 82.949219 76.796875 C 82.917969 75.996094 82.222656 74.820312 81.820312 74.1875 C 81.167969 73.152344 79.9375 72.003906 78.957031 71.371094 C 77.71875 70.570312 76.414062 70.363281 75 70.308594 C 74.226562 70.277344 73.371094 70.230469 72.746094 70.789062 C 71.777344 71.652344 70.441406 73.804688 72.167969 74.53125 C 72.523438 74.679688 72.8125 74.78125 73.582031 74.941406 C 74.351562 75.101562 75.832031 75.210938 76.769531 75.492188 C 77.703125 75.773438 78.464844 76.292969 79.148438 76.625 C 80.207031 77.136719 81.023438 77.492188 82.144531 77.792969 C 82.367188 77.851562 81.90625 77.820312 82.046875 77.792969 Z M 82.046875 77.792969 " fill-opacity="1" fill-rule="nonzero"/><path fill="#000000" d="M 52.492188 81.414062 C 52.589844 80.988281 52.679688 80.550781 52.785156 80.136719 C 53.007812 79.238281 53.117188 78.964844 53.65625 78.277344 C 53.84375 78.039062 54.347656 77.859375 54.238281 77.503906 C 54.050781 76.910156 52.449219 76.648438 51.949219 76.613281 C 51.605469 76.585938 51.382812 76.625 51.1875 76.730469 C 50.992188 76.832031 50.917969 76.957031 50.859375 77.191406 C 50.753906 77.640625 50.820312 78.703125 50.96875 79.128906 C 51.109375 79.539062 51.453125 80.035156 51.695312 80.484375 L 52.238281 81.375 Z M 52.492188 81.414062 " fill-opacity="1" fill-rule="nonzero"/><path fill="#000000" d="M 58.375 77.15625 C 58.847656 77.238281 59.410156 76.605469 59.320312 76.109375 C 59.277344 75.886719 59.128906 75.59375 58.917969 75.410156 C 58.710938 75.226562 58.441406 75.160156 58.121094 75.0625 C 57.085938 74.75 57.015625 74.871094 56.234375 74.015625 C 55.972656 73.734375 55.71875 73.292969 55.433594 73.125 C 55.148438 72.960938 54.835938 72.953125 54.636719 73.089844 C 53.976562 73.539062 55.128906 75.355469 55.46875 75.683594 C 56.003906 76.199219 56.941406 76.636719 57.613281 76.921875 C 57.914062 77.050781 58.15625 77.117188 58.375 77.15625 Z M 58.375 77.15625 " fill-opacity="1" fill-rule="nonzero"/><path fill="#000000" d="M 58.28125 73.804688 C 58.28125 73.417969 58.347656 73.035156 58.28125 72.644531 C 58.097656 71.5625 57.929688 71.011719 57.917969 69.835938 C 57.914062 69.300781 57.917969 68.644531 57.859375 68.257812 C 57.796875 67.871094 57.804688 67.65625 57.554688 67.546875 C 57.304688 67.4375 57.007812 67.5 56.679688 67.742188 C 56.351562 67.984375 55.945312 68.515625 55.679688 68.933594 C 55.417969 69.351562 55.183594 69.820312 55.105469 70.226562 C 55.027344 70.628906 55.105469 70.945312 55.226562 71.257812 C 55.519531 72.011719 56.492188 72.695312 57.042969 73.222656 L 57.796875 73.644531 Z M 58.28125 73.804688 " fill-opacity="1" fill-rule="nonzero"/><path fill="#000000" d="M 64.664062 68.96875 C 64.828125 68.878906 64.929688 68.796875 64.984375 68.441406 C 65.039062 68.085938 65.078125 67.417969 64.984375 66.910156 C 64.890625 66.402344 64.804688 65.976562 64.429688 65.445312 C 64.054688 64.914062 63.378906 64.230469 62.789062 63.789062 C 62.203125 63.347656 61.519531 63.0625 60.949219 62.824219 C 60.375 62.582031 59.757812 62.398438 59.367188 62.355469 C 58.980469 62.3125 58.847656 62.4375 58.695312 62.574219 C 58.542969 62.707031 58.566406 62.914062 58.550781 63.074219 C 58.496094 63.644531 58.953125 63.835938 59.308594 64.195312 C 59.671875 64.558594 60.320312 65.21875 60.773438 65.695312 C 61.226562 66.167969 61.667969 66.621094 62.03125 67.035156 C 62.390625 67.453125 62.675781 67.921875 62.9375 68.191406 C 63.230469 68.488281 64.296875 69.171875 64.664062 68.96875 Z M 64.664062 68.96875 " fill-opacity="1" fill-rule="nonzero"/><path fill="#000000" d="M 51.914062 70.492188 C 52.289062 70.078125 52.730469 69.683594 53.039062 69.257812 C 53.753906 68.269531 53.960938 67.488281 53.824219 66.238281 C 53.644531 64.613281 53.148438 63.425781 52.289062 62.097656 C 51.886719 61.472656 51.359375 60.847656 50.894531 60.207031 C 49.871094 58.796875 48.9375 57.421875 47.65625 56.246094 C 47.125 55.757812 46.761719 55.53125 46.328125 55.335938 C 45.574219 54.992188 44.851562 54.914062 44.25 55.589844 C 43.789062 56.109375 43.554688 56.996094 43.636719 57.699219 C 43.773438 58.84375 44.382812 60.070312 45.035156 60.96875 C 45.472656 61.578125 46.167969 62.265625 46.667969 62.785156 C 47.167969 63.308594 47.496094 63.640625 48.03125 64.09375 C 49.273438 65.148438 50.195312 65.636719 50.996094 67.183594 C 51.265625 67.703125 51.351562 68.152344 51.472656 68.601562 C 51.59375 69.050781 51.632812 69.449219 51.710938 69.875 L 51.609375 70.457031 Z M 51.914062 70.492188 " fill-opacity="1" fill-rule="nonzero"/><path fill="#000000" d="M 40.515625 52.652344 C 39.980469 52.652344 39.601562 52.738281 38.863281 52.765625 C 38.125 52.792969 37.289062 52.6875 36.679688 52.765625 C 36.070312 52.839844 35.703125 53.078125 35.242188 53.21875 C 34.78125 53.363281 34.332031 53.425781 33.910156 53.617188 C 33.488281 53.808594 33.042969 54.085938 32.738281 54.355469 C 32.429688 54.625 32.175781 54.972656 32.097656 55.207031 C 32.019531 55.441406 32.042969 55.394531 32.363281 55.492188 C 32.683594 55.589844 33.300781 55.75 33.960938 55.777344 C 34.625 55.804688 35.628906 55.730469 36.304688 55.664062 C 36.980469 55.597656 37.460938 55.484375 38.011719 55.378906 C 38.5625 55.273438 39.167969 55.289062 39.609375 55.039062 C 40.046875 54.789062 40.210938 54.316406 40.515625 53.957031 L 40.566406 52.480469 Z M 40.515625 52.652344 " fill-opacity="1" fill-rule="nonzero"/><path fill="#000000" d="M 27.199219 43.730469 C 27.019531 43.898438 26.914062 44.011719 26.664062 44.242188 C 26.417969 44.46875 26.144531 44.816406 25.707031 45.09375 C 25.269531 45.371094 24.640625 45.652344 24.054688 45.890625 C 23.46875 46.125 22.722656 46.34375 22.191406 46.515625 C 21.660156 46.683594 21.242188 46.769531 20.859375 46.910156 C 20.476562 47.054688 20.128906 47.191406 19.902344 47.367188 C 19.671875 47.542969 19.585938 47.722656 19.527344 47.933594 C 19.472656 48.144531 19.449219 48.375 19.582031 48.558594 C 19.710938 48.742188 19.808594 48.863281 20.21875 48.902344 C 20.632812 48.941406 21.328125 48.902344 21.976562 48.785156 C 22.628906 48.671875 23.414062 48.398438 24.109375 48.21875 C 24.800781 48.039062 25.488281 47.773438 26.132812 47.707031 C 26.777344 47.640625 27.351562 47.695312 27.945312 47.820312 C 28.535156 47.945312 28.945312 48.265625 29.648438 48.445312 C 30.351562 48.625 31.152344 48.835938 32.152344 48.902344 C 33.148438 48.96875 34.734375 48.96875 35.613281 48.84375 C 36.496094 48.71875 36.839844 48.359375 37.371094 48.160156 C 37.90625 47.964844 38.492188 47.875 38.808594 47.652344 C 39.125 47.425781 39.257812 47.210938 39.128906 46.910156 C 39 46.613281 38.746094 46.46875 38.222656 46.285156 C 37.699219 46.105469 36.796875 45.957031 36.039062 45.832031 C 35.285156 45.707031 34.46875 45.640625 33.695312 45.546875 C 32.925781 45.453125 32.039062 45.386719 31.40625 45.265625 C 30.773438 45.140625 30.402344 44.980469 29.914062 44.808594 C 29.425781 44.636719 28.957031 44.429688 28.476562 44.242188 Z M 27.199219 43.730469 " fill-opacity="1" fill-rule="nonzero"/><path fill="#000000" d="M 8.074219 40.375 C 7.835938 40.367188 7.371094 40.222656 7.117188 40.261719 C 6.667969 40.332031 6.199219 40.800781 6.425781 41.34375 C 6.503906 41.535156 6.6875 41.707031 6.902344 41.796875 C 7.507812 42.050781 8.839844 42.320312 9.511719 42.480469 C 10.03125 42.601562 10.851562 42.753906 11.539062 42.820312 C 12.222656 42.886719 12.921875 42.894531 13.613281 42.878906 C 14.308594 42.859375 15.039062 42.832031 15.691406 42.707031 C 16.34375 42.582031 16.941406 42.367188 17.503906 42.136719 C 18.066406 41.910156 18.390625 41.75 19.046875 41.34375 C 19.707031 40.933594 20.851562 40.242188 21.445312 39.695312 C 22.039062 39.148438 22.3125 38.605469 22.5625 38.105469 C 22.816406 37.601562 22.917969 37.132812 22.9375 36.738281 C 22.957031 36.34375 22.921875 36.019531 22.671875 35.832031 C 22.417969 35.640625 22.050781 35.8125 21.710938 35.832031 C 21.375 35.847656 21.007812 35.839844 20.644531 35.945312 C 20.285156 36.050781 20.035156 36.191406 19.582031 36.457031 C 19.128906 36.722656 18.4375 37.164062 17.929688 37.535156 C 17.421875 37.90625 17.050781 38.300781 16.542969 38.671875 C 16.039062 39.042969 15.367188 39.484375 14.894531 39.75 C 14.421875 40.015625 14.144531 40.148438 13.722656 40.261719 C 13.300781 40.378906 12.859375 40.386719 12.390625 40.433594 C 11.917969 40.480469 11.359375 40.539062 10.898438 40.546875 C 10.4375 40.554688 9.984375 40.507812 9.621094 40.492188 C 9.257812 40.472656 8.972656 40.453125 8.714844 40.433594 C 8.457031 40.414062 8.316406 40.386719 8.074219 40.375 Z M 8.074219 40.375 " fill-opacity="1" fill-rule="nonzero"/><path fill="#000000" d="M 41.320312 4.449219 C 41.769531 6.039062 41.40625 8.335938 41.320312 9.960938 C 41.285156 10.613281 41.253906 11.363281 41.253906 11.921875 C 41.253906 12.476562 41.238281 12.90625 41.320312 13.296875 C 41.402344 13.691406 41.460938 14.023438 41.726562 14.242188 C 42.34375 14.742188 43.5 14.441406 43.699219 13.589844 C 44.164062 11.613281 44.386719 8.738281 44.582031 6.335938 C 44.632812 5.722656 44.40625 5.136719 44.242188 4.738281 C 44.082031 4.339844 43.917969 4.179688 43.632812 4.011719 C 43.34375 3.847656 42.878906 3.808594 42.613281 3.796875 C 42.238281 3.777344 41.664062 4 41.269531 4.054688 Z M 41.320312 4.449219 " fill-opacity="1" fill-rule="nonzero"/><path fill="#000000" d="M 37.71875 6.191406 C 37.707031 7.546875 37.328125 10.363281 37.714844 11.558594 C 37.824219 11.886719 38.101562 12.222656 38.328125 12.5 C 38.554688 12.78125 38.78125 13.109375 39.078125 13.226562 C 39.371094 13.34375 39.703125 13.546875 39.960938 13.152344 C 40.21875 12.761719 40.230469 12.1875 40.367188 11.269531 C 40.503906 10.347656 40.730469 8.46875 40.777344 7.640625 C 40.820312 6.808594 41.007812 4.347656 40.230469 3.796875 C 39.867188 3.535156 39.246094 3.46875 38.601562 3.214844 C 37.953125 2.960938 37.175781 2.527344 36.355469 2.273438 C 35.539062 2.019531 34.648438 1.835938 33.703125 1.691406 C 32.761719 1.546875 31.609375 1.449219 30.710938 1.402344 C 29.816406 1.355469 29.058594 1.355469 28.332031 1.402344 C 27.605469 1.449219 26.941406 1.546875 26.359375 1.691406 C 25.78125 1.839844 25.277344 1.898438 24.863281 2.273438 C 24.453125 2.644531 24.234375 3.308594 24.050781 3.796875 C 23.867188 4.285156 24.011719 4.722656 23.777344 5.175781 C 23.144531 6.386719 21.667969 7.570312 20.851562 8.730469 C 20.152344 9.726562 19.351562 11.035156 18.8125 12.136719 C 18.394531 12.992188 18.136719 13.945312 17.726562 14.824219 L 17.65625 15.476562 C 17.976562 15.402344 18.0625 15.667969 18.609375 15.257812 C 19.15625 14.847656 20.058594 13.902344 20.851562 13.082031 C 22.589844 11.28125 24.082031 9.601562 25.207031 7.277344 C 25.570312 6.519531 25.523438 6.378906 25.546875 5.828125 C 25.566406 5.273438 25.304688 4.488281 25.339844 4.015625 C 25.375 3.539062 25.507812 3.257812 25.75 3.070312 C 25.992188 2.882812 26.214844 2.777344 26.566406 3.070312 C 26.914062 3.363281 27.3125 4.230469 27.652344 4.667969 C 27.992188 5.101562 28.230469 5.367188 28.605469 5.683594 C 28.980469 6 29.464844 6.355469 29.898438 6.554688 C 31.046875 7.074219 32.011719 6.859375 32.84375 6.984375 C 33.183594 7.039062 33.070312 7.453125 33.863281 7.550781 C 34.144531 7.585938 34.496094 7.472656 34.53125 7.808594 C 34.566406 8.148438 34.464844 8.496094 34.453125 9.09375 C 34.441406 9.6875 34.410156 10.835938 34.589844 11.339844 C 34.765625 11.84375 35.191406 11.898438 35.503906 11.984375 C 35.8125 12.070312 36.136719 12.0625 36.425781 11.847656 C 36.710938 11.632812 36.695312 11.636719 36.765625 10.761719 C 36.832031 9.882812 37.113281 7.40625 37.125 6.542969 C 37.140625 5.417969 36.578125 6.058594 36.644531 4.960938 C 36.675781 4.441406 37.390625 4.230469 37.757812 4.425781 C 37.945312 4.523438 37.730469 5.132812 37.71875 6.191406 Z M 37.71875 6.191406 " fill-opacity="1" fill-rule="nonzero"/><path fill="#000000" d="M 23.644531 11.855469 C 23.898438 12.453125 24.183594 13.003906 24.398438 13.644531 C 24.609375 14.28125 24.847656 15.011719 24.917969 15.675781 C 24.984375 16.34375 24.929688 16.980469 24.800781 17.585938 C 24.675781 18.1875 24.328125 18.808594 24.167969 19.25 C 24.003906 19.691406 23.847656 19.894531 23.820312 20.234375 C 23.789062 20.574219 23.863281 20.929688 23.992188 21.21875 C 24.121094 21.507812 24.449219 21.53125 24.570312 21.898438 C 24.691406 22.265625 24.726562 22.84375 24.6875 23.3125 C 24.648438 23.78125 24.597656 24.195312 24.339844 24.667969 C 24.082031 25.140625 23.539062 25.613281 23.183594 26.085938 C 22.828125 26.558594 22.4375 27.011719 22.203125 27.503906 C 21.96875 27.992188 21.914062 28.507812 21.800781 28.980469 C 21.3125 30.96875 20.53125 31.574219 18.507812 32.121094 C 17.363281 32.429688 15.230469 32.757812 14.121094 32.246094 C 12.90625 31.683594 12.449219 30.273438 12.386719 28.980469 C 12.285156 26.890625 12.652344 24.296875 13.601562 22.453125 C 14.765625 20.183594 16.816406 18.441406 18.625 16.785156 C 19.449219 16.023438 20.421875 15.257812 21.105469 14.566406 C 21.789062 13.878906 22.183594 13.292969 22.722656 12.660156 L 23.472656 11.980469 L 23.644531 11.859375 Z M 23.644531 11.855469 " fill-opacity="1" fill-rule="nonzero"/><g clip-path="url(#5cd71615f0)"><path fill="#000000" d="M 104.886719 67.183594 C 104.613281 67.5625 104.453125 67.960938 104.070312 68.320312 C 103.6875 68.683594 103.140625 69 102.628906 69.324219 C 102.117188 69.648438 101.667969 70.054688 101 70.261719 C 100.328125 70.464844 99.359375 70.394531 98.679688 70.527344 C 97.996094 70.664062 97.492188 70.804688 96.925781 71.0625 C 96.355469 71.320312 95.730469 71.691406 95.292969 72.066406 C 94.007812 73.171875 94.125 73.585938 92.160156 73.871094 C 90.324219 74.140625 88.421875 73.894531 86.582031 74.207031 C 84.605469 74.542969 84.511719 75.570312 83.632812 73.203125 C 83.414062 72.613281 83.257812 71.792969 83.007812 71.195312 C 82.753906 70.601562 82.457031 70.066406 82.128906 69.660156 C 81.800781 69.25 81.507812 68.964844 81.0625 68.789062 C 80.617188 68.613281 80.121094 68.6875 79.558594 68.65625 C 78.996094 68.621094 78.234375 68.644531 77.679688 68.589844 C 77.121094 68.53125 76.578125 68.472656 76.234375 68.320312 C 75.894531 68.167969 75.851562 67.972656 75.734375 67.71875 C 75.617188 67.464844 75.5 67.105469 75.546875 66.851562 C 75.59375 66.597656 75.628906 66.519531 75.984375 66.382812 C 76.34375 66.242188 77.085938 66.261719 77.617188 66.046875 C 78.144531 65.832031 78.648438 65.601562 79.121094 65.109375 C 79.589844 64.621094 80.058594 63.789062 80.375 63.171875 C 80.6875 62.554688 80.789062 61.871094 81 61.433594 C 81.210938 60.992188 81.359375 60.722656 81.628906 60.5625 C 81.894531 60.402344 82.207031 60.175781 82.441406 60.5625 C 82.675781 60.953125 82.546875 61.609375 82.757812 62.4375 C 82.964844 63.261719 83.390625 64.695312 83.695312 65.511719 C 84 66.328125 84.125 66.769531 84.574219 67.316406 C 85.023438 67.867188 85.621094 68.328125 86.328125 68.722656 C 87.039062 69.117188 87.746094 69.414062 88.773438 69.660156 C 89.804688 69.90625 91.316406 70.171875 92.472656 70.195312 C 93.632812 70.214844 94.480469 69.980469 95.671875 69.792969 C 96.863281 69.601562 98.527344 69.359375 99.621094 69.058594 C 100.710938 68.753906 101.488281 68.265625 102.191406 67.988281 C 102.890625 67.707031 103.277344 67.585938 103.820312 67.386719 Z M 104.886719 67.183594 " fill-opacity="1" fill-rule="nonzero"/></g><path fill="#000000" d="M 53.078125 49.484375 C 53.226562 50.347656 53.417969 51.199219 53.949219 52.273438 C 54.480469 53.347656 55.289062 54.667969 56.234375 55.871094 C 58.0625 58.199219 60.4375 60.554688 62.875 62.140625 C 64.1875 62.996094 65.980469 64.015625 67.445312 64.582031 C 69.9375 65.546875 73.132812 65.972656 75.714844 65.160156 C 77.785156 64.511719 80.402344 61.429688 80.613281 59.007812 C 80.671875 58.355469 80.574219 57.78125 80.179688 57.382812 C 79.480469 56.675781 77.839844 57.167969 77.132812 56.335938 C 76.878906 56.042969 77.105469 55.847656 77.457031 55.640625 C 78.519531 55.011719 80.449219 55.476562 81.265625 54.710938 C 81.992188 54.035156 81.796875 51.394531 81.484375 50.53125 C 81.203125 49.753906 79.976562 48.542969 79.308594 48.09375 C 78.96875 47.863281 77.5625 47.714844 77.785156 46.933594 C 77.875 46.613281 78.320312 46.625 78.65625 46.582031 C 79.25 46.511719 79.769531 46.695312 80.398438 46.582031 C 80.144531 46.234375 80.078125 45.894531 79.636719 45.539062 C 78.039062 44.261719 76.519531 43.714844 74.609375 43.371094 C 72.917969 43.066406 70.515625 42.9375 68.925781 42.226562 C 66.628906 41.203125 64.757812 40.1875 62.65625 38.804688 C 58.273438 35.921875 54.933594 33.632812 49.5625 33.734375 C 47.90625 33.765625 45.808594 34.398438 44.261719 35.089844 C 43.695312 35.34375 43.179688 35.722656 42.847656 36.015625 C 42.515625 36.3125 42.367188 36.566406 42.304688 36.828125 C 42.242188 37.09375 42.230469 37.203125 42.523438 37.410156 C 42.8125 37.617188 43.628906 37.683594 43.9375 37.992188 C 44.242188 38.296875 44.222656 38.753906 44.15625 39.035156 C 44.089844 39.320312 44.035156 39.425781 43.609375 39.382812 C 43.183594 39.34375 42.339844 39.183594 41.761719 38.804688 C 41.179688 38.425781 40.746094 37.71875 40.238281 37.179688 C 39.730469 36.636719 39.257812 36.058594 38.710938 35.550781 C 37.640625 34.5625 36.144531 33.210938 34.902344 32.535156 C 33.242188 31.625 30.582031 31.363281 28.808594 31.835938 C 28.21875 31.992188 27.394531 32.207031 26.957031 32.648438 C 26.523438 33.09375 26.433594 33.761719 26.414062 34.277344 C 26.394531 34.789062 26.613281 35.101562 26.851562 35.550781 C 27.605469 36.984375 28.871094 37.988281 30.113281 38.917969 C 31.960938 40.300781 33.507812 41.074219 35.664062 41.707031 C 38.164062 42.4375 39.980469 42.6875 42.523438 42.75 C 43.285156 42.769531 43.753906 42.789062 44.261719 42.867188 C 44.773438 42.945312 45.273438 42.96875 45.570312 43.214844 C 45.863281 43.460938 45.933594 43.894531 45.785156 44.144531 C 45.640625 44.394531 45.378906 44.265625 45.023438 44.144531 C 44.671875 44.027344 44.195312 43.53125 43.71875 43.449219 C 43.242188 43.367188 42.695312 43.519531 42.304688 43.679688 C 41.910156 43.839844 41.578125 44.066406 41.433594 44.378906 C 41.285156 44.691406 41.351562 44.960938 41.542969 45.304688 C 41.734375 45.652344 42.097656 46.039062 42.523438 46.351562 C 42.945312 46.664062 43.375 46.855469 44.046875 47.164062 C 45.089844 47.644531 47.28125 48.90625 48.398438 48.90625 C 48.90625 48.90625 49.074219 48.792969 49.269531 48.207031 C 49.464844 47.625 49.523438 46.4375 49.488281 45.65625 C 49.449219 44.871094 49.214844 44.203125 49.050781 43.5625 C 48.886719 42.925781 48.769531 42.300781 48.507812 41.824219 C 48.246094 41.347656 47.820312 41.085938 47.527344 40.777344 C 47.238281 40.46875 47.039062 40.21875 46.765625 39.964844 C 46.492188 39.710938 46.101562 39.507812 45.894531 39.269531 C 45.691406 39.03125 45.464844 38.824219 45.570312 38.570312 C 45.675781 38.316406 45.871094 38.160156 46.332031 38.222656 C 46.792969 38.285156 47.46875 38.488281 48.179688 38.921875 C 52.886719 41.75 52.265625 44.714844 53.078125 49.484375 Z M 53.078125 49.484375 " fill-opacity="1" fill-rule="nonzero"/><g fill="#000000" fill-opacity="1"><g transform="translate(74.219046, 68.187516)"><g><path d="M 4.015625 0 L 0.390625 0 L 0.390625 -3.625 L 4.015625 -3.625 Z M 4.015625 0 "/></g></g></g></svg>