<svg xmlns="http://www.w3.org/2000/svg" xmlns:xlink="http://www.w3.org/1999/xlink" width="423" zoomAndPan="magnify" viewBox="0 0 317.25 147.000002" height="196" preserveAspectRatio="xMidYMid meet" version="1.0"><defs><g/><clipPath id="5ad8e9e987"><path d="M 0.699219 11.125 L 87.113281 11.125 L 87.113281 99.769531 L 0.699219 99.769531 Z M 0.699219 11.125 " clip-rule="nonzero"/></clipPath><clipPath id="78ed85a609"><path d="M 61 99 L 67 99 L 67 99.769531 L 61 99.769531 Z M 61 99 " clip-rule="nonzero"/></clipPath><clipPath id="ff210a09ea"><path d="M 68 93 L 87 93 L 87 99.769531 L 68 99.769531 Z M 68 93 " clip-rule="nonzero"/></clipPath><clipPath id="1a94373e5f"><path d="M 85 54 L 87.113281 54 L 87.113281 80 L 85 80 Z M 85 54 " clip-rule="nonzero"/></clipPath><clipPath id="8f24eb0011"><path d="M 81 37 L 87.113281 37 L 87.113281 58 L 81 58 Z M 81 37 " clip-rule="nonzero"/></clipPath><clipPath id="8c608b2be8"><path d="M 75 71 L 87.113281 71 L 87.113281 86 L 75 86 Z M 75 71 " clip-rule="nonzero"/></clipPath></defs><g clip-path="url(#5ad8e9e987)"><path fill="#ffffff" d="M 74.152344 13.339844 C 73.78125 13.339844 73.132812 13.273438 72.671875 13.339844 C 72.210938 13.40625 71.796875 13.589844 71.414062 13.734375 C 71.03125 13.878906 70.636719 13.988281 70.378906 14.207031 C 69.441406 15.007812 70.449219 15.796875 70.789062 16.5625 C 70.90625 16.828125 70.644531 17.109375 70.527344 17.285156 C 70.414062 17.464844 70.121094 17.707031 69.933594 17.917969 C 69.75 18.128906 69.554688 18.253906 69.417969 18.550781 C 69.277344 18.84375 69.257812 19.152344 69.121094 19.652344 C 68.984375 20.152344 68.777344 21.082031 68.605469 21.546875 C 68.429688 22.011719 68.296875 22.152344 68.085938 22.417969 C 67.875 22.683594 67.652344 22.8125 67.347656 23.128906 C 67.039062 23.441406 66.476562 23.917969 66.234375 24.3125 C 65.996094 24.703125 65.925781 25.027344 65.941406 25.417969 C 65.953125 25.804688 66.1875 26.230469 66.308594 26.519531 C 66.433594 26.8125 66.605469 26.949219 66.679688 27.152344 C 66.753906 27.355469 66.820312 27.457031 66.753906 27.707031 C 66.6875 27.953125 66.46875 28.296875 66.308594 28.574219 C 66.148438 28.851562 65.964844 29.046875 65.792969 29.363281 C 65.617188 29.679688 65.507812 30.019531 65.273438 30.46875 C 65.039062 30.914062 64.558594 31.675781 64.386719 32.046875 C 64.210938 32.417969 64.226562 32.457031 64.238281 32.679688 C 64.25 32.898438 64.332031 33.128906 64.460938 33.308594 C 64.589844 33.488281 64.742188 33.570312 64.976562 33.703125 C 65.214844 33.835938 65.707031 33.859375 65.867188 34.097656 C 65.878906 34.117188 65.800781 35.515625 65.757812 36.640625 C 65.734375 37.210938 65.414062 37.949219 65.4375 38.347656 C 65.464844 38.746094 65.515625 38.890625 65.773438 39.191406 C 66.03125 39.496094 66.570312 39.519531 66.753906 39.859375 C 66.9375 40.203125 66.519531 40.265625 66.382812 40.730469 C 66.246094 41.191406 65.953125 41.988281 65.941406 42.625 C 65.925781 43.257812 66.015625 43.867188 66.308594 44.4375 C 66.605469 45.011719 67.164062 45.621094 67.640625 45.9375 C 68.121094 46.253906 68.613281 46.214844 69.046875 46.253906 C 69.484375 46.292969 69.738281 46.214844 70.230469 46.175781 C 70.726562 46.136719 71.414062 46.070312 72.007812 46.019531 L 73.488281 45.9375 C 73.265625 46.414062 73.128906 46.792969 72.820312 47.359375 C 72.511719 47.925781 72.074219 48.8125 71.636719 49.332031 C 71.199219 49.855469 70.738281 50.246094 70.230469 50.4375 C 69.726562 50.632812 69.371094 50.492188 68.75 50.4375 C 68.132812 50.386719 67.332031 50.402344 66.53125 50.121094 C 65.730469 49.84375 64.855469 49.226562 64.015625 48.78125 C 63.300781 48.253906 62.636719 47.691406 61.871094 47.203125 C 61.105469 46.714844 60.257812 46.269531 59.429688 45.859375 C 58.601562 45.453125 57.839844 45.109375 56.914062 44.753906 C 55.988281 44.398438 54.824219 43.941406 53.878906 43.730469 C 52.9375 43.515625 52.191406 43.519531 51.289062 43.492188 C 50.390625 43.464844 49.503906 43.453125 48.480469 43.570312 C 47.453125 43.691406 46.136719 44.019531 45.148438 44.203125 C 44.164062 44.386719 43.289062 44.503906 42.558594 44.675781 C 41.832031 44.847656 41.285156 45.148438 40.785156 45.230469 C 40.285156 45.308594 40.035156 45.339844 39.601562 45.148438 C 39.164062 44.957031 38.8125 44.542969 38.269531 44.125 C 37.726562 43.703125 37 43.046875 36.34375 42.625 C 35.6875 42.199219 35.066406 41.875 34.347656 41.597656 C 33.628906 41.320312 32.898438 41.070312 32.054688 40.964844 C 31.207031 40.859375 30.070312 40.914062 29.316406 40.964844 C 28.5625 41.019531 28.007812 41.191406 27.539062 41.28125 C 27.070312 41.375 26.769531 41.503906 26.503906 41.519531 C 26.238281 41.53125 26.117188 41.636719 25.988281 41.359375 C 25.859375 41.085938 25.8125 40.640625 25.839844 40.097656 C 25.863281 39.554688 26.023438 38.847656 26.132812 38.125 C 26.246094 37.402344 26.382812 36.546875 26.503906 35.757812 C 26.527344 34.96875 26.617188 34.050781 26.578125 33.386719 C 26.542969 32.726562 26.34375 32.269531 26.28125 31.808594 C 26.222656 31.347656 26.171875 31.179688 26.207031 30.625 C 26.246094 30.070312 26.316406 29.160156 26.503906 28.496094 C 26.691406 27.828125 26.960938 27.402344 27.320312 26.679688 C 27.675781 25.957031 28.269531 24.863281 28.648438 24.152344 C 29.03125 23.441406 29.277344 22.894531 29.613281 22.417969 C 29.949219 21.9375 30.195312 21.488281 30.648438 21.3125 C 31.097656 21.136719 31.546875 21.253906 32.054688 21.46875 C 32.5625 21.6875 33.089844 22.191406 33.605469 22.574219 C 34.125 22.957031 34.617188 23.503906 35.160156 23.757812 C 35.703125 24.015625 36.421875 23.730469 36.789062 24.074219 C 37.15625 24.417969 36.488281 24.835938 36.9375 25.417969 C 37.386719 25.996094 38.53125 26.859375 39.304688 27.308594 C 40.078125 27.761719 40.832031 27.914062 41.523438 28.101562 C 42.21875 28.285156 42.820312 28.441406 43.449219 28.414062 C 44.078125 28.390625 44.648438 28.207031 45.222656 27.941406 C 45.796875 27.675781 46.363281 27.304688 46.851562 26.835938 C 47.339844 26.371094 47.851562 25.824219 48.109375 25.179688 C 48.367188 24.535156 48.28125 23.945312 48.332031 23.128906 C 48.378906 22.3125 48.40625 21.113281 48.40625 20.285156 C 48.40625 19.457031 48.429688 18.753906 48.332031 18.152344 C 48.230469 17.554688 48 17.117188 47.8125 16.734375 C 47.625 16.347656 47.484375 16.027344 47.222656 15.863281 C 46.957031 15.703125 46.621094 15.839844 46.40625 15.863281 C 46.195312 15.890625 46.230469 16.25 45.964844 16.023438 C 45.695312 15.796875 45.3125 15.015625 45 14.679688 C 44.6875 14.347656 44.449219 14.160156 44.113281 14.050781 C 43.777344 13.941406 43.4375 14.023438 43.078125 14.050781 C 42.71875 14.074219 42.320312 14.222656 41.96875 14.207031 C 41.617188 14.195312 41.550781 14.167969 41.007812 13.972656 C 40.460938 13.773438 39.414062 13.300781 38.710938 13.023438 C 38.007812 12.746094 37.46875 12.511719 36.789062 12.3125 C 36.109375 12.117188 35.433594 11.957031 34.644531 11.839844 C 33.851562 11.722656 32.90625 11.640625 32.054688 11.601562 C 31.203125 11.5625 30.375 11.589844 29.539062 11.601562 C 28.699219 11.617188 27.828125 11.5625 27.023438 11.679688 C 26.214844 11.800781 25.492188 12.101562 24.730469 12.3125 C 24.335938 12.601562 23.882812 12.847656 23.546875 13.179688 C 23.207031 13.515625 22.992188 13.824219 22.730469 14.285156 C 22.46875 14.75 22.152344 15.496094 21.992188 15.945312 C 21.832031 16.394531 22 16.585938 21.769531 16.96875 C 21.539062 17.351562 21.226562 17.5625 20.660156 18.152344 C 20.09375 18.746094 19.21875 19.574219 18.367188 20.523438 C 17.515625 21.46875 16.613281 22.652344 15.554688 23.835938 C 14.492188 25.023438 13.210938 26.246094 12.003906 27.625 C 10.792969 29.007812 9.511719 30.519531 8.304688 32.125 C 7.09375 33.730469 5.582031 35.8125 4.753906 37.257812 C 3.921875 38.699219 3.730469 39.730469 3.347656 40.730469 C 2.964844 41.730469 2.65625 42.527344 2.457031 43.253906 C 2.261719 43.980469 2.25 44.480469 2.164062 45.070312 C 2.078125 45.664062 2.140625 46.167969 1.941406 46.808594 C 1.742188 47.449219 1.179688 48.246094 0.980469 48.859375 C 0.777344 49.472656 0.71875 49.949219 0.757812 50.4375 C 0.792969 50.925781 0.953125 51.367188 1.199219 51.703125 C 1.449219 52.035156 1.753906 52.121094 2.164062 52.332031 C 2.570312 52.542969 3.148438 52.753906 3.640625 52.964844 C 3.839844 53.253906 4.085938 53.539062 4.234375 53.832031 C 4.382812 54.125 4.351562 54.441406 4.53125 54.699219 C 4.710938 54.960938 4.800781 55.042969 5.269531 55.332031 C 5.742188 55.625 6.625 56.09375 7.339844 56.4375 C 8.058594 56.78125 8.671875 56.976562 9.5625 57.382812 C 10.449219 57.792969 11.394531 58.132812 12.667969 58.882812 C 13.941406 59.636719 15.972656 61.09375 17.183594 61.882812 C 18.390625 62.671875 18.832031 63.015625 19.917969 63.621094 C 21.007812 64.226562 22.359375 64.960938 23.691406 65.515625 C 25.027344 66.070312 26.492188 66.539062 27.910156 66.9375 C 29.332031 67.332031 30.765625 67.683594 32.203125 67.882812 C 33.636719 68.082031 35.203125 68.171875 36.492188 68.121094 C 37.78125 68.066406 39.070312 67.710938 39.894531 67.566406 C 40.722656 67.421875 41.058594 67.207031 41.449219 67.25 C 41.84375 67.292969 41.875 67.117188 42.042969 67.804688 C 42.210938 68.492188 42.289062 69.738281 42.410156 71.199219 C 42.535156 72.660156 42.535156 74.796875 42.78125 76.566406 C 43.027344 78.332031 43.398438 80.007812 43.890625 81.773438 C 44.691406 84.632812 45.621094 87.621094 47.367188 89.984375 C 48.296875 91.238281 50.179688 93.429688 51.289062 94.640625 C 52.402344 95.851562 53.28125 96.34375 54.027344 97.246094 C 54.773438 98.148438 55.171875 98.941406 55.730469 100.007812 C 56.285156 101.078125 56.789062 102.429688 57.359375 103.640625 C 57.925781 104.851562 58.589844 106.125 59.132812 107.269531 C 59.675781 108.414062 60.121094 109.402344 60.613281 110.507812 C 61.105469 111.613281 61.722656 112.859375 62.09375 113.902344 C 62.789062 115.855469 63.453125 117.785156 64.164062 119.742188 C 64.484375 120.625 64.703125 121.484375 64.757812 122.03125 C 64.808594 122.578125 64.722656 122.4375 64.460938 122.898438 C 64.199219 123.363281 63.457031 124.074219 63.203125 124.792969 C 62.949219 125.515625 63.042969 126.332031 62.980469 127.082031 C 62.917969 127.832031 63.070312 128.460938 62.832031 129.292969 C 62.59375 130.125 61.980469 131.082031 61.574219 131.976562 C 61.167969 132.871094 60.652344 133.867188 60.390625 134.660156 C 60.128906 135.457031 60.15625 135.804688 60.019531 136.714844 C 59.886719 137.621094 59.75 139.082031 59.578125 140.105469 C 59.234375 142.136719 58.621094 144.050781 58.097656 146.027344 C 57.863281 146.910156 57.886719 147.039062 57.578125 148.160156 C 57.269531 149.277344 56.703125 151.261719 56.246094 152.738281 C 55.792969 154.210938 55.285156 155.75 54.84375 157 C 54.398438 158.25 54.027344 159.078125 53.585938 160.234375 C 53.140625 161.394531 52.535156 162.917969 52.179688 163.945312 C 51.820312 164.972656 51.710938 165.273438 51.4375 166.390625 C 51.167969 167.511719 50.808594 169.085938 50.550781 170.65625 C 50.292969 172.222656 50.105469 174.074219 49.882812 175.785156 C 49.910156 177.257812 49.871094 178.835938 49.957031 180.207031 C 50.046875 181.574219 50.230469 183.054688 50.402344 183.996094 C 50.574219 184.933594 50.808594 185.125 50.996094 185.808594 C 51.179688 186.496094 51.449219 187.289062 51.511719 188.097656 C 51.574219 188.910156 51.539062 189.4375 51.363281 190.625 C 51.191406 191.8125 50.675781 194.085938 50.476562 195.203125 C 50.28125 196.320312 50.230469 196.726562 50.179688 197.335938 C 50.132812 197.941406 50.207031 198.386719 50.179688 198.835938 C 50.15625 199.28125 50.132812 199.621094 50.03125 200.019531 C 49.933594 200.414062 49.851562 200.789062 49.589844 201.203125 C 49.324219 201.617188 48.800781 202.070312 48.480469 202.464844 C 48.15625 202.859375 48 203.148438 47.664062 203.570312 C 47.332031 203.992188 46.828125 204.515625 46.480469 204.992188 C 46.136719 205.464844 45.964844 205.847656 45.59375 206.410156 C 45.222656 206.976562 44.621094 207.738281 44.261719 208.386719 C 43.902344 209.03125 43.707031 209.609375 43.449219 210.28125 C 43.1875 210.949219 42.953125 211.699219 42.707031 212.410156 C 42.558594 213.253906 42.386719 214.121094 42.265625 214.9375 C 42.140625 215.753906 42.015625 216.5 41.96875 217.304688 C 41.917969 218.109375 41.957031 218.882812 41.96875 219.75 C 41.996094 221.707031 42.082031 223.644531 42.265625 225.59375 C 42.574219 228.941406 43.0625 232.269531 43.375 235.617188 C 43.472656 236.683594 43.449219 237.222656 43.449219 238.222656 C 43.449219 239.222656 43.449219 240.378906 43.375 241.617188 C 43.300781 242.855469 43.1875 244.375 43.003906 245.640625 C 42.820312 246.90625 42.585938 248.035156 42.265625 249.195312 C 41.941406 250.355469 41.539062 251.609375 41.082031 252.589844 C 40.621094 253.570312 40.4375 254.078125 39.527344 255.035156 C 38.617188 255.992188 36.9375 257.152344 35.679688 258.269531 C 34.421875 259.390625 32.890625 260.847656 31.980469 261.746094 C 31.066406 262.640625 30.734375 263.058594 30.203125 263.640625 C 29.671875 264.21875 29.207031 264.605469 28.796875 265.21875 C 27.304688 267.4375 26.863281 269.121094 29.003906 271.515625 C 29.949219 272.578125 30.660156 273.722656 31.964844 274.597656 C 34.765625 276.472656 35.867188 276.484375 38.785156 274.925781 C 40.097656 274.226562 40.828125 274.273438 41.96875 273.03125 C 42.539062 272.410156 43.300781 271.347656 43.816406 270.664062 C 44.335938 269.980469 44.554688 269.519531 45.074219 268.925781 C 45.59375 268.332031 46.28125 267.679688 46.925781 267.113281 C 48.90625 265.363281 49.332031 264.457031 50.773438 262.140625 C 51.378906 261.164062 52.1875 260.621094 52.546875 259.691406 C 52.90625 258.761719 52.808594 257.601562 52.84375 256.769531 C 52.882812 255.941406 52.867188 255.589844 52.769531 254.71875 C 52.671875 253.847656 52.339844 253.402344 52.253906 251.5625 C 52.164062 249.722656 52.476562 247.441406 53.289062 244.929688 C 53.632812 243.863281 53.878906 243.128906 54.324219 242.089844 C 54.769531 241.050781 55.410156 239.710938 55.953125 238.695312 C 56.496094 237.679688 57 236.894531 57.578125 236.011719 C 58.160156 235.128906 58.800781 234.328125 59.429688 233.40625 C 60.058594 232.484375 60.773438 231.40625 61.351562 230.488281 C 61.933594 229.566406 62.484375 228.699219 62.90625 227.882812 C 63.328125 227.0625 63.632812 226.347656 63.867188 225.59375 C 64.105469 224.839844 64.238281 224.203125 64.3125 223.382812 C 64.386719 222.5625 64.3125 221.621094 64.3125 220.699219 C 64.3125 219.777344 64.289062 218.792969 64.3125 217.855469 C 64.335938 216.921875 64.375 215.910156 64.460938 215.09375 C 64.546875 214.277344 64.695312 213.714844 64.832031 212.964844 C 64.964844 212.214844 65.101562 211.292969 65.273438 210.59375 C 65.445312 209.894531 65.605469 209.386719 65.867188 208.78125 C 66.125 208.171875 66.496094 207.570312 66.828125 206.964844 C 67.160156 206.359375 67.480469 205.742188 67.863281 205.148438 C 68.246094 204.554688 68.714844 204.042969 69.121094 203.414062 C 69.527344 202.78125 69.859375 202.175781 70.304688 201.359375 C 70.75 200.542969 71.414062 199.375 71.785156 198.519531 C 72.15625 197.660156 72.304688 197.007812 72.523438 196.230469 C 72.746094 195.453125 72.882812 194.664062 73.117188 193.859375 C 73.351562 193.058594 73.632812 192.140625 73.929688 191.414062 C 74.226562 190.6875 74.511719 190.242188 74.890625 189.519531 C 75.273438 188.796875 75.765625 187.773438 76.222656 187.074219 C 76.683594 186.371094 77.039062 186.085938 77.628906 185.335938 C 78.222656 184.585938 79.148438 183.375 79.777344 182.574219 C 80.40625 181.769531 80.910156 181.152344 81.402344 180.519531 C 81.898438 179.890625 82.304688 179.429688 82.734375 178.785156 C 83.167969 178.140625 83.660156 177.257812 83.992188 176.652344 C 84.328125 176.046875 84.484375 175.652344 84.734375 175.152344 L 85.472656 174.046875 L 85.917969 174.363281 C 86.210938 175.3125 86.484375 176.0625 86.804688 177.207031 C 87.125 178.351562 87.65625 180.121094 87.839844 181.230469 C 88.027344 182.34375 87.828125 183.003906 87.914062 183.835938 C 88 184.667969 88.199219 185.347656 88.359375 186.203125 C 88.519531 187.058594 88.679688 188.175781 88.875 188.96875 C 89.074219 189.757812 89.355469 190.296875 89.542969 190.941406 C 89.726562 191.585938 89.984375 192.222656 89.984375 192.835938 C 89.984375 193.449219 89.738281 193.597656 89.542969 194.492188 C 89.34375 195.386719 88.9375 197.292969 88.800781 198.203125 C 88.667969 199.113281 88.714844 199.386719 88.726562 199.9375 C 88.742188 200.492188 88.828125 201.019531 88.875 201.519531 C 88.925781 202.019531 89.035156 202.472656 89.023438 202.9375 C 89.011719 203.402344 89.015625 203.695312 88.800781 204.28125 C 88.589844 204.867188 88.359375 205.304688 87.765625 206.410156 C 87.175781 207.515625 85.855469 209.710938 85.25 210.910156 C 84.644531 212.109375 84.660156 212.34375 84.140625 213.59375 C 83.625 214.84375 82.675781 216.921875 82.144531 218.410156 C 81.613281 219.898438 81.195312 221.324219 80.960938 222.515625 C 80.722656 223.703125 80.625 224.03125 80.738281 225.511719 C 80.847656 226.996094 81.402344 229.828125 81.625 231.355469 C 81.847656 232.878906 81.984375 233.429688 82.070312 234.667969 C 82.15625 235.910156 82.265625 237.410156 82.144531 238.773438 C 82.019531 240.136719 81.675781 241.457031 81.328125 242.800781 C 80.632812 245.503906 79.707031 248.292969 78.8125 250.929688 C 78.394531 252.167969 77.851562 253.429688 77.554688 254.246094 C 77.261719 255.0625 77.296875 255.074219 77.039062 255.824219 C 76.78125 256.574219 76.203125 257.988281 76.003906 258.746094 C 75.742188 259.738281 75.867188 260.808594 75.929688 261.824219 C 75.964844 262.429688 76.003906 263.386719 76.078125 263.953125 C 76.152344 264.523438 76.195312 264.828125 76.371094 265.21875 C 76.546875 265.605469 76.773438 265.921875 77.113281 266.242188 C 77.449219 266.5625 77.726562 266.910156 78.371094 267.113281 C 79.015625 267.3125 79.972656 267.347656 80.886719 267.425781 C 81.796875 267.507812 82.847656 267.492188 83.84375 267.585938 C 84.84375 267.675781 85.847656 267.703125 86.878906 267.980469 C 87.910156 268.257812 89.027344 268.699219 89.984375 269.242188 C 90.945312 269.785156 92.007812 270.769531 92.574219 271.214844 C 93.144531 271.664062 93.039062 271.738281 93.390625 271.925781 C 93.742188 272.113281 94.1875 272.230469 94.648438 272.320312 C 95.105469 272.414062 95.644531 272.425781 96.128906 272.480469 C 96.609375 272.53125 97.160156 272.542969 97.53125 272.636719 C 97.90625 272.730469 98 272.847656 98.347656 273.03125 C 98.691406 273.214844 99.144531 273.554688 99.605469 273.742188 C 100.0625 273.925781 100.546875 274.097656 101.085938 274.136719 C 101.621094 274.175781 102.167969 274.042969 102.785156 273.980469 C 103.402344 273.914062 104.214844 273.929688 104.785156 273.742188 C 105.351562 273.554688 105.46875 273.371094 105.839844 273.09375 C 106.210938 272.816406 106.390625 272.390625 106.785156 272.214844 C 107.183594 272.035156 107.660156 271.96875 107.933594 271.59375 C 108.898438 270.277344 108.746094 268.792969 108.210938 267.242188 C 107.972656 266.550781 107.066406 265.941406 106.191406 265.613281 C 105.3125 265.28125 103.96875 264.847656 103.082031 264.585938 C 102.195312 264.324219 101.476562 264.375 100.863281 264.035156 C 100.246094 263.691406 99.972656 263.074219 99.53125 262.613281 C 99.085938 262.152344 98.769531 261.734375 98.199219 261.269531 C 97.628906 260.808594 96.84375 260.324219 96.128906 259.851562 C 95.410156 259.375 94.609375 258.902344 93.90625 258.429688 C 93.203125 257.957031 92.5625 257.496094 91.910156 257.007812 C 91.257812 256.519531 90.40625 255.878906 89.984375 255.507812 C 89.566406 255.136719 89.535156 255.097656 89.394531 254.796875 C 89.253906 254.5 89.171875 254.175781 89.171875 253.773438 C 89.171875 253.367188 89.222656 253.167969 89.394531 252.429688 C 89.566406 251.691406 89.761719 250.617188 90.207031 249.351562 C 90.652344 248.085938 91.253906 246.578125 92.058594 244.851562 C 92.859375 243.128906 93.917969 241.023438 95.015625 239.011719 C 96.839844 235.667969 98.875 233.054688 100.9375 230.011719 C 101.679688 228.917969 102.570312 227.488281 103.082031 226.222656 C 103.59375 224.960938 103.734375 223.753906 103.96875 222.515625 C 104.203125 221.277344 104.363281 219.988281 104.488281 218.804688 C 104.609375 217.621094 104.660156 216.226562 104.710938 215.410156 C 104.757812 214.59375 104.746094 214.476562 104.785156 213.910156 C 104.820312 213.34375 104.730469 212.6875 104.929688 212.015625 C 105.132812 211.34375 105.523438 210.664062 105.96875 209.964844 C 106.414062 209.261719 107.164062 208.464844 107.59375 207.832031 C 108.027344 207.199219 108.234375 206.875 108.558594 206.175781 C 108.878906 205.476562 109.269531 204.628906 109.519531 203.648438 C 109.765625 202.667969 109.925781 201.375 110.035156 200.332031 C 110.148438 199.292969 110.085938 198.257812 110.183594 197.414062 C 110.285156 196.566406 110.46875 196.003906 110.628906 195.28125 C 110.789062 194.558594 110.859375 193.777344 111.148438 193.070312 C 111.433594 192.363281 111.886719 191.914062 112.332031 191.097656 C 112.773438 190.28125 113.230469 189.152344 113.808594 188.175781 C 114.390625 187.203125 115.265625 186.046875 115.808594 185.257812 C 116.351562 184.46875 116.621094 184.113281 117.066406 183.441406 C 117.507812 182.769531 118.050781 181.941406 118.472656 181.230469 C 118.890625 180.519531 119.296875 179.882812 119.582031 179.179688 C 119.867188 178.476562 120.011719 177.691406 120.171875 177.046875 C 120.332031 176.402344 120.46875 176.050781 120.542969 175.3125 C 120.617188 174.570312 120.628906 173.511719 120.617188 172.628906 C 120.605469 171.746094 120.519531 171.273438 120.46875 170.023438 C 120.417969 168.773438 120.359375 166.367188 120.320312 165.128906 C 120.269531 163.355469 120.113281 161.898438 119.804688 160.15625 C 119.574219 158.851562 119.464844 157.78125 119.507812 156.445312 C 119.53125 155.695312 119.617188 154.761719 119.65625 153.921875 C 119.691406 153.078125 119.753906 152.472656 119.730469 151.394531 C 119.703125 150.316406 119.628906 148.921875 119.507812 147.449219 C 119.382812 145.972656 119.296875 144.179688 118.988281 142.554688 C 118.679688 140.929688 118.164062 139.175781 117.65625 137.738281 C 117.152344 136.300781 116.414062 134.886719 115.957031 133.949219 C 115.101562 132.199219 115.082031 131.929688 114.773438 130.003906 C 114.648438 129.238281 114.441406 128.324219 114.179688 127.554688 C 113.921875 126.789062 113.550781 126.070312 113.21875 125.425781 C 112.882812 124.78125 112.492188 124.125 112.183594 123.6875 C 111.464844 122.675781 111.304688 122.421875 110.851562 121.164062 C 110.304688 119.648438 110.109375 119.253906 110.109375 117.609375 L 109.742188 115.558594 C 109.421875 114.769531 109.027344 113.902344 108.777344 113.191406 C 108.53125 112.480469 108.371094 111.96875 108.261719 111.296875 C 108.148438 110.621094 108.113281 110.035156 108.113281 109.164062 C 108.113281 108.292969 108.175781 106.96875 108.261719 106.085938 C 108.398438 104.679688 108.578125 102.601562 109.296875 101.429688 C 110.171875 100 112.550781 96.957031 113.808594 95.429688 C 115.070312 93.902344 115.808594 93.378906 116.84375 92.273438 C 117.878906 91.167969 119.144531 89.9375 120.023438 88.800781 C 120.90625 87.664062 121.660156 86.445312 122.097656 85.484375 C 122.535156 84.523438 122.441406 83.90625 122.613281 83.117188 L 122.46875 80.589844 L 122.320312 78.933594 L 122.835938 78.855469 L 125.054688 79.878906 C 126.066406 80.25 127.210938 80.722656 128.089844 80.984375 C 130 81.558594 132.617188 81.859375 134.15625 81.933594 C 135.699219 82.003906 136.007812 81.839844 136.96875 81.773438 C 137.929688 81.707031 138.953125 81.65625 139.929688 81.539062 C 140.902344 81.417969 141.808594 81.339844 142.8125 81.0625 C 143.816406 80.785156 144.898438 80.273438 145.921875 79.878906 C 146.945312 79.484375 148.125 79.121094 148.953125 78.695312 C 149.785156 78.273438 150.410156 77.683594 150.878906 77.355469 C 152.035156 76.542969 152.214844 76.851562 153.617188 76.800781 C 154.355469 76.773438 155.375 76.722656 156.207031 76.566406 C 157.035156 76.40625 157.871094 76.105469 158.574219 75.855469 C 159.277344 75.605469 159.78125 75.382812 160.421875 75.066406 C 161.066406 74.75 161.777344 74.394531 162.421875 73.960938 C 163.0625 73.523438 163.855469 72.902344 164.269531 72.460938 C 164.683594 72.019531 164.761719 71.75 164.863281 71.355469 C 164.964844 70.960938 164.898438 70.582031 164.863281 70.171875 C 164.824219 69.761719 164.703125 69.476562 164.640625 68.910156 C 164.578125 68.339844 164.566406 67.488281 164.492188 66.777344 C 164.417969 66.066406 164.234375 65.675781 164.195312 64.644531 C 164.160156 63.617188 164.246094 61.816406 164.269531 60.621094 C 164.296875 59.421875 164.355469 58.410156 164.34375 57.460938 C 164.332031 56.515625 164.332031 55.796875 164.195312 54.9375 C 164.058594 54.078125 163.839844 53.191406 163.53125 52.332031 C 163.222656 51.472656 162.753906 50.582031 162.347656 49.804688 C 161.9375 49.027344 161.507812 48.386719 161.089844 47.675781 C 160.398438 46.542969 159.511719 45.246094 159.015625 44.28125 C 158.523438 43.316406 158.5 42.914062 158.128906 41.914062 C 157.757812 40.914062 157.203125 39.441406 156.796875 38.28125 C 156.390625 37.125 156.007812 35.941406 155.6875 34.964844 C 155.367188 33.992188 155.070312 33.21875 154.875 32.441406 C 154.675781 31.664062 154.628906 30.941406 154.503906 30.308594 C 154.378906 29.679688 154.46875 29.121094 154.132812 28.652344 C 153.800781 28.179688 153.140625 27.917969 152.652344 27.703125 C 152.167969 27.492188 151.65625 27.441406 151.25 27.390625 C 150.839844 27.335938 150.617188 27.496094 150.210938 27.390625 C 149.808594 27.28125 149.597656 27.058594 148.878906 26.757812 C 148.164062 26.453125 146.636719 25.851562 145.921875 25.574219 C 145.207031 25.296875 145.019531 25.152344 144.589844 25.101562 C 144.160156 25.046875 143.796875 25.339844 143.40625 25.257812 C 143.015625 25.175781 142.753906 24.8125 142.371094 24.625 C 141.984375 24.441406 141.53125 24.207031 141.113281 24.152344 C 140.695312 24.097656 140.367188 24.335938 139.929688 24.3125 C 139.492188 24.285156 138.980469 24.074219 138.523438 23.996094 C 138.066406 23.914062 137.53125 23.824219 137.191406 23.835938 C 136.851562 23.851562 136.773438 23.925781 136.523438 24.074219 C 136.277344 24.21875 136.136719 24.675781 135.710938 24.707031 C 135.285156 24.734375 134.640625 24.324219 134.230469 24.230469 C 133.820312 24.140625 133.5625 24.097656 133.269531 24.152344 C 132.976562 24.207031 132.78125 24.320312 132.53125 24.546875 C 132.277344 24.777344 131.976562 25.148438 131.789062 25.496094 C 131.601562 25.84375 131.542969 26.191406 131.417969 26.601562 C 131.296875 27.007812 131.183594 27.496094 131.050781 27.941406 C 130.914062 28.390625 130.804688 28.847656 130.605469 29.285156 C 130.40625 29.71875 130.050781 30.109375 129.867188 30.546875 C 129.679688 30.984375 129.535156 31.511719 129.496094 31.886719 C 129.457031 32.265625 129.503906 32.457031 129.644531 32.757812 C 129.785156 33.054688 130.136719 33.359375 130.308594 33.625 C 130.484375 33.890625 130.496094 34.019531 130.679688 34.335938 C 130.863281 34.652344 131.140625 35.222656 131.417969 35.519531 C 131.699219 35.816406 132.070312 35.871094 132.308594 36.070312 C 132.542969 36.273438 132.425781 36.589844 132.824219 36.703125 C 133.226562 36.816406 134.113281 36.5 134.527344 36.703125 C 134.941406 36.90625 134.667969 37.472656 134.898438 37.730469 C 135.125 37.988281 135.417969 38.070312 135.785156 38.125 C 136.152344 38.179688 136.671875 38.167969 137.042969 38.046875 C 137.414062 37.921875 137.542969 37.574219 137.929688 37.414062 C 138.320312 37.253906 138.730469 37.175781 139.335938 37.097656 C 139.941406 37.019531 141.011719 36.964844 141.554688 36.941406 C 142.097656 36.914062 142.273438 37.019531 142.59375 36.941406 C 142.910156 36.859375 143.144531 36.585938 143.40625 36.464844 C 143.664062 36.347656 143.808594 36.128906 144.144531 36.230469 C 144.484375 36.332031 144.957031 36.578125 145.253906 37.019531 C 145.554688 37.460938 145.636719 38.109375 145.847656 38.753906 C 146.058594 39.398438 146.449219 40.050781 146.511719 40.886719 C 146.578125 41.722656 146.402344 42.648438 146.21875 43.648438 C 146.03125 44.652344 145.710938 45.765625 145.402344 46.886719 C 145.09375 48.003906 144.625 49.316406 144.367188 50.359375 C 144.109375 51.398438 143.984375 52.320312 143.851562 53.121094 C 143.714844 53.925781 143.652344 54.488281 143.554688 55.175781 L 143.554688 56.4375 C 142.863281 56.042969 142.234375 55.621094 141.480469 55.253906 C 140.730469 54.882812 139.878906 54.53125 139.039062 54.226562 C 138.199219 53.921875 137.359375 53.570312 136.449219 53.4375 C 135.542969 53.304688 134.507812 53.207031 133.640625 53.4375 C 132.773438 53.667969 132.160156 54.277344 131.417969 54.777344 C 130.679688 55.28125 130.011719 56.210938 129.199219 56.4375 C 128.390625 56.664062 128.066406 56.332031 126.90625 56.042969 C 125.746094 55.753906 123.710938 55.148438 122.246094 54.699219 C 120.777344 54.253906 119.355469 53.636719 118.101562 53.359375 C 116.851562 53.082031 115.796875 53.070312 114.773438 53.042969 C 113.746094 53.015625 113.097656 53.015625 111.960938 53.199219 C 110.824219 53.386719 109.136719 53.910156 107.964844 54.148438 C 106.792969 54.382812 105.773438 54.570312 104.933594 54.621094 C 104.089844 54.675781 103.601562 54.515625 102.933594 54.464844 C 102.195312 54.121094 101.496094 53.953125 100.714844 53.4375 C 99.929688 52.921875 99.050781 52.054688 98.273438 51.386719 C 97.523438 50.738281 95.363281 49.371094 95.238281 48.308594 C 95.125 47.304688 95.289062 44.609375 95.386719 43.648438 C 95.488281 42.691406 95.597656 43.097656 95.832031 42.625 C 96.066406 42.148438 96.214844 41.453125 96.792969 40.808594 C 97.371094 40.164062 98.667969 39.308594 99.234375 38.835938 C 99.800781 38.359375 99.980469 38.234375 100.195312 37.964844 C 100.410156 37.695312 100.429688 37.578125 100.492188 37.257812 C 100.554688 36.933594 100.464844 36.425781 100.566406 36.070312 C 100.667969 35.71875 100.863281 35.570312 101.085938 35.203125 C 101.304688 34.835938 101.675781 34.378906 101.898438 33.863281 C 102.121094 33.34375 102.292969 32.734375 102.417969 32.125 C 102.539062 31.515625 102.625 30.761719 102.636719 30.230469 C 102.652344 29.699219 102.492188 29.328125 102.492188 28.96875 C 102.492188 28.609375 102.539062 28.367188 102.636719 28.101562 C 102.738281 27.832031 103.003906 27.730469 103.082031 27.390625 C 103.160156 27.046875 103.15625 26.628906 103.082031 26.125 C 103.007812 25.621094 102.8125 24.820312 102.636719 24.390625 C 102.460938 23.960938 102.257812 23.917969 102.046875 23.601562 C 101.835938 23.285156 101.628906 22.890625 101.378906 22.496094 C 101.132812 22.101562 100.777344 21.726562 100.566406 21.230469 C 100.355469 20.738281 100.394531 20.199219 100.121094 19.574219 C 99.847656 18.949219 99.398438 18.132812 98.9375 17.523438 C 98.480469 16.914062 97.855469 16.429688 97.386719 15.945312 C 96.917969 15.457031 96.699219 15.050781 96.128906 14.601562 C 95.554688 14.152344 94.898438 13.695312 93.980469 13.261719 C 93.066406 12.824219 91.605469 12.289062 90.652344 11.996094 C 89.699219 11.707031 89.113281 11.640625 88.285156 11.523438 C 87.457031 11.40625 86.570312 11.339844 85.695312 11.285156 C 84.820312 11.234375 84.042969 11.195312 83.03125 11.207031 C 82.019531 11.222656 80.527344 11.285156 79.628906 11.367188 C 78.726562 11.445312 78.148438 11.574219 77.628906 11.679688 C 77.113281 11.785156 76.863281 11.808594 76.519531 11.996094 C 76.179688 12.1875 75.902344 12.5625 75.632812 12.785156 C 75.359375 13.011719 75.152344 13.242188 74.894531 13.339844 C 74.632812 13.433594 74.523438 13.339844 74.152344 13.339844 Z M 74.152344 13.339844 " fill-opacity="1" fill-rule="nonzero"/></g><g clip-path="url(#78ed85a609)"><path fill="#ffffff" d="M 66.921875 104.804688 C 66.898438 104.53125 66.933594 104.328125 66.792969 103.992188 C 66.65625 103.660156 66.480469 103.300781 66.097656 102.847656 C 65.71875 102.394531 65.003906 101.792969 64.519531 101.296875 C 64.035156 100.800781 63.554688 100.199219 63.191406 99.878906 C 62.832031 99.5625 62.636719 99.46875 62.371094 99.410156 C 62.101562 99.347656 61.824219 99.339844 61.675781 99.542969 C 61.535156 99.734375 61.671875 100.976562 61.738281 101.230469 C 61.824219 101.550781 61.941406 101.949219 62.179688 102.242188 C 62.421875 102.53125 62.800781 102.679688 63.128906 102.914062 C 63.457031 103.152344 63.78125 103.351562 64.140625 103.65625 C 64.5 103.960938 64.972656 104.398438 65.277344 104.734375 C 65.585938 105.074219 65.742188 105.367188 65.972656 105.679688 L 66.289062 106.21875 C 66.441406 106.199219 66.621094 106.285156 66.746094 106.164062 C 66.871094 106.042969 66.890625 105.84375 66.921875 105.613281 C 66.949219 105.382812 66.941406 105.074219 66.921875 104.804688 Z M 66.921875 104.804688 " fill-opacity="1" fill-rule="nonzero"/></g><g clip-path="url(#ff210a09ea)"><path fill="#ffffff" d="M 86.667969 106.722656 C 86.546875 106.316406 86.554688 105.859375 86.3125 105.507812 C 86.066406 105.152344 85.671875 104.957031 85.277344 104.707031 C 84.886719 104.460938 84.425781 104.226562 83.960938 104.023438 C 83.496094 103.820312 82.910156 103.652344 82.5 103.492188 C 82.089844 103.335938 81.769531 103.234375 81.503906 103.074219 C 81.238281 102.914062 81.054688 102.757812 80.933594 102.542969 C 80.816406 102.328125 80.734375 102.097656 80.828125 101.859375 C 80.921875 101.621094 81.105469 101.398438 81.433594 101.289062 C 81.761719 101.183594 82.28125 101.160156 82.679688 101.253906 C 83.078125 101.34375 83.371094 101.773438 83.746094 101.820312 C 84.121094 101.871094 84.53125 101.738281 84.78125 101.519531 C 85.027344 101.296875 85.140625 101.078125 85.066406 100.644531 C 84.988281 100.210938 84.800781 99.589844 84.351562 99.085938 C 83.90625 98.582031 83.03125 98.019531 82.464844 97.71875 C 81.898438 97.417969 81.625 97.390625 81.003906 97.300781 C 80.386719 97.214844 79.535156 97.347656 78.761719 97.1875 C 77.988281 97.027344 77.167969 96.613281 76.414062 96.351562 C 75.660156 96.09375 74.914062 95.9375 74.242188 95.628906 C 73.566406 95.324219 72.953125 94.878906 72.390625 94.527344 C 71.824219 94.179688 71.40625 93.785156 70.859375 93.542969 C 70.3125 93.296875 69.617188 92.878906 69.148438 93.085938 C 68.679688 93.292969 68.773438 93.835938 68.863281 94.414062 C 68.957031 94.992188 69.328125 95.816406 69.683594 96.390625 C 70.039062 96.960938 70.585938 97.320312 70.964844 97.796875 C 71.347656 98.273438 71.808594 98.851562 71.960938 99.238281 C 72.117188 99.628906 71.933594 99.789062 71.820312 99.960938 C 71.707031 100.132812 71.664062 100.15625 71.355469 100.152344 C 71.050781 100.144531 70.375 99.839844 70.039062 99.921875 C 69.707031 100.003906 69.648438 100.265625 69.648438 100.570312 C 69.648438 100.871094 69.597656 101.007812 70.039062 101.519531 C 70.480469 102.027344 71.367188 103.011719 72.246094 103.570312 C 73.125 104.128906 74.078125 104.453125 75.238281 104.824219 C 76.398438 105.191406 77.980469 105.519531 79.191406 105.773438 C 80.402344 106.027344 81.527344 106.214844 82.5 106.34375 C 83.476562 106.46875 84.421875 106.460938 85.027344 106.53125 C 85.636719 106.601562 85.765625 106.683594 86.132812 106.757812 Z M 86.667969 106.722656 " fill-opacity="1" fill-rule="nonzero"/></g><path fill="#ffffff" d="M 82.363281 95.9375 C 82.761719 95.75 83.011719 95.605469 83.132812 95.1875 C 83.25 94.765625 83.121094 94.199219 83.003906 93.679688 C 82.789062 92.738281 82.230469 91.285156 81.65625 90.535156 C 81.28125 90.042969 80.808594 89.613281 80.214844 89.199219 C 79.625 88.789062 78.816406 88.402344 78.132812 88.074219 C 76.746094 87.402344 75.375 86.921875 73.867188 86.671875 C 72.921875 86.511719 71.300781 86.253906 70.726562 87.285156 C 70.273438 88.097656 70.226562 88.875 70.503906 89.78125 C 70.707031 90.460938 71.511719 91.503906 71.945312 92.039062 C 72.292969 92.472656 72.691406 92.921875 73.164062 93.339844 C 74.25 94.300781 75.445312 94.972656 76.753906 95.527344 C 78.128906 96.109375 79.332031 96.375 80.824219 96.28125 C 81.449219 96.238281 81.964844 96.128906 82.363281 95.9375 Z M 82.363281 95.9375 " fill-opacity="1" fill-rule="nonzero"/><g clip-path="url(#1a94373e5f)"><path fill="#ffffff" d="M 127.914062 57.445312 C 127.519531 57.8125 127.335938 58.117188 126.726562 58.542969 C 126.117188 58.964844 125.019531 59.636719 124.277344 59.976562 C 123.535156 60.316406 122.917969 60.507812 122.300781 60.566406 C 120.632812 60.722656 119.992188 59.792969 118.820312 58.796875 C 118.554688 58.566406 118.269531 58.191406 117.953125 58.289062 C 117.632812 58.386719 117.625 58.707031 117.476562 59.21875 C 117.332031 59.726562 117.390625 60.621094 117.082031 61.324219 C 116.769531 62.03125 116.230469 62.714844 115.660156 63.351562 C 115.089844 63.988281 114.449219 64.53125 113.683594 65.121094 C 112.914062 65.714844 111.785156 66.457031 111.074219 66.894531 C 110.359375 67.328125 109.925781 67.496094 109.414062 67.734375 C 108.898438 67.976562 108.34375 68.078125 107.988281 68.328125 C 107.636719 68.574219 107.46875 68.917969 107.355469 69.171875 C 107.246094 69.421875 107.09375 69.660156 107.355469 69.761719 C 108.070312 70.03125 109.410156 69.144531 110.125 69 C 110.535156 68.921875 113.082031 68.628906 113.050781 69 C 113 69.589844 112.9375 69.683594 111.707031 70.773438 C 110.472656 71.859375 107.441406 74.285156 105.695312 75.496094 C 103.953125 76.707031 102.789062 77.335938 101.269531 78.027344 C 98.554688 79.261719 96.003906 80.054688 93.046875 79.628906 C 91.300781 79.378906 89.960938 78.335938 88.699219 77.097656 C 88.21875 76.632812 88.046875 76.371094 87.90625 76.003906 C 87.769531 75.632812 87.734375 75.332031 87.90625 74.988281 C 88.082031 74.648438 88.386719 74.390625 88.855469 74.148438 C 89.324219 73.902344 89.960938 73.796875 90.675781 73.554688 C 91.386719 73.316406 92.546875 73.015625 93.125 72.710938 C 93.703125 72.410156 93.949219 72.152344 94.074219 71.785156 C 94.199219 71.414062 94.042969 71.132812 93.757812 70.855469 C 93.472656 70.582031 92.996094 70.339844 92.492188 70.265625 C 91.988281 70.195312 91.265625 70.378906 90.832031 70.433594 C 90.398438 70.492188 90.125 70.671875 89.882812 70.605469 C 89.644531 70.535156 89.613281 70.300781 89.644531 70.097656 C 89.679688 69.894531 89.746094 69.792969 90.042969 69.589844 C 90.335938 69.390625 90.9375 69.15625 91.386719 68.917969 C 92.898438 68.109375 93.398438 67.894531 92.730469 65.964844 C 92.503906 65.316406 92.164062 64.28125 91.78125 63.519531 C 91.398438 62.753906 90.914062 62.019531 90.4375 61.410156 C 89.503906 60.21875 88.640625 59.617188 87.273438 59.132812 C 86.796875 58.960938 86.414062 59.039062 86.089844 58.878906 C 85.761719 58.71875 85.519531 58.523438 85.375 58.203125 C 85.234375 57.886719 85.167969 57.464844 85.296875 57.109375 C 85.429688 56.753906 85.65625 56.511719 86.089844 56.265625 C 86.523438 56.019531 87.085938 55.828125 87.828125 55.675781 C 88.570312 55.519531 89.5 55.433594 90.515625 55.335938 C 91.53125 55.238281 92.886719 55.113281 93.914062 55.082031 C 94.945312 55.054688 95.703125 55.039062 96.683594 55.167969 C 97.660156 55.292969 98.855469 55.574219 99.765625 55.84375 C 100.679688 56.109375 101.515625 56.574219 102.136719 56.769531 C 102.761719 56.96875 102.925781 57.007812 103.484375 57.023438 C 105.554688 57.074219 106.046875 56.203125 107.832031 55.421875 C 108.800781 54.996094 110.089844 54.550781 111.230469 54.324219 C 112.371094 54.097656 113.574219 54.058594 114.628906 54.070312 C 115.6875 54.085938 116.488281 54.210938 117.554688 54.410156 C 118.625 54.605469 119.78125 54.828125 121.035156 55.253906 C 122.289062 55.675781 124.101562 56.613281 125.066406 56.9375 C 126.035156 57.265625 126.226562 57.109375 126.808594 57.191406 Z M 127.914062 57.445312 " fill-opacity="1" fill-rule="nonzero"/></g><path fill="#ffffff" d="M 72.597656 16.902344 C 72.257812 16.863281 71.996094 17.0625 71.71875 17.371094 C 71.445312 17.679688 71.222656 18.339844 71.015625 18.683594 C 70.808594 19.027344 70.621094 19.164062 70.488281 19.433594 C 70.355469 19.703125 70.386719 19.824219 70.222656 20.28125 C 70.0625 20.734375 69.769531 21.59375 69.519531 22.15625 C 69.269531 22.722656 69.003906 23.316406 68.730469 23.660156 C 68.457031 24 68.15625 23.96875 67.9375 24.128906 C 67.46875 24.460938 67.070312 25.191406 67.320312 25.816406 C 67.417969 26.054688 67.738281 26.082031 67.847656 26.378906 C 67.957031 26.679688 68.066406 27.132812 67.9375 27.507812 C 67.808594 27.878906 67.535156 28.171875 67.3125 28.554688 C 67.089844 28.933594 66.859375 29.375 66.652344 29.859375 C 66.296875 30.699219 65.875 31.40625 65.386719 32.199219 C 65.242188 32.433594 65.265625 32.65625 65.296875 32.855469 C 65.382812 33.386719 65.957031 33.371094 66.410156 33.339844 C 66.863281 33.308594 67.234375 32.988281 67.671875 32.855469 C 67.882812 32.789062 68.042969 32.789062 68.199219 32.855469 C 68.46875 32.96875 68.589844 33.398438 68.90625 33.511719 C 70.257812 34.003906 70.070312 33.121094 70.242188 32.9375 C 70.398438 32.777344 70.570312 32.824219 70.671875 32.988281 C 70.777344 33.15625 70.726562 33.609375 70.664062 33.792969 C 70.601562 33.976562 70.554688 34.175781 70.3125 34.261719 C 70.070312 34.347656 69.683594 34.308594 69.34375 34.261719 C 69.003906 34.214844 68.597656 34.042969 68.289062 33.980469 C 67.980469 33.917969 67.703125 33.8125 67.496094 33.886719 C 67.273438 33.96875 67.105469 34.6875 67.058594 34.917969 C 67 35.203125 66.894531 35.746094 66.882812 36.046875 C 66.871094 36.269531 66.878906 36.828125 67.144531 36.890625 C 67.285156 36.921875 67.511719 36.890625 67.761719 36.890625 C 68.011719 36.890625 68.40625 36.875 68.640625 36.890625 C 68.875 36.90625 68.992188 36.96875 69.167969 36.984375 C 69.34375 37 69.472656 37.03125 69.695312 36.984375 C 69.917969 36.9375 70.195312 36.652344 70.488281 36.703125 C 70.78125 36.753906 71.085938 37.058594 71.28125 37.265625 C 71.476562 37.472656 71.613281 37.707031 71.632812 37.921875 C 71.648438 38.140625 71.550781 38.300781 71.367188 38.390625 C 71.183594 38.480469 70.886719 38.441406 70.664062 38.390625 C 70.441406 38.34375 70.332031 38.171875 70.046875 38.109375 C 69.765625 38.046875 69.390625 38.09375 68.992188 38.015625 C 68.59375 37.9375 68.0625 37.671875 67.671875 37.640625 C 67.28125 37.609375 66.933594 37.730469 66.707031 37.828125 C 66.476562 37.925781 66.390625 38.035156 66.355469 38.203125 C 66.269531 38.601562 66.644531 39.03125 66.96875 39.050781 C 67.253906 39.066406 67.835938 38.96875 68.113281 38.953125 C 68.390625 38.9375 68.433594 38.90625 68.640625 38.953125 C 68.847656 39.003906 69.148438 39.089844 69.34375 39.238281 C 69.542969 39.382812 69.808594 39.582031 69.785156 39.800781 C 69.769531 39.933594 67.824219 41.113281 67.410156 41.789062 C 66.996094 42.46875 66.875 43.03125 67.320312 44.304688 C 67.765625 45.566406 69.109375 45.550781 70.3125 45.148438 C 71.046875 44.90625 71.644531 44.503906 72.335938 44.398438 C 73.335938 44.246094 74.664062 44.203125 75.679688 44.117188 C 76.398438 44.054688 77.058594 44.21875 77.613281 44.023438 C 78.371094 43.753906 79.371094 42.574219 79.636719 41.769531 C 80.175781 40.132812 79.878906 39.214844 79.546875 37.640625 C 79.417969 37.015625 79.253906 36.347656 79.195312 35.765625 C 79.121094 35.023438 78.980469 33.578125 79.722656 33.136719 C 80.160156 32.878906 80.996094 32.949219 81.570312 32.761719 C 82.148438 32.574219 82.65625 32.292969 83.15625 32.011719 C 83.65625 31.726562 84.195312 31.371094 84.5625 31.070312 C 84.929688 30.773438 85.171875 30.566406 85.355469 30.226562 C 85.535156 29.886719 85.632812 29.433594 85.617188 29.101562 C 85.601562 28.769531 85.402344 28.53125 85.265625 28.351562 C 85.128906 28.171875 84.949219 28.214844 84.828125 28.070312 C 84.703125 27.921875 84.53125 27.796875 84.5625 27.503906 C 84.59375 27.214844 84.855469 26.832031 85.003906 26.472656 C 85.378906 25.546875 85.597656 24.890625 85.53125 23.847656 C 85.5 23.386719 85.546875 23.027344 85.265625 22.625 C 84.984375 22.226562 84.433594 21.878906 83.945312 21.59375 C 82.734375 20.886719 81.191406 20.445312 79.898438 19.90625 L 75.414062 18.402344 C 74.84375 18.15625 73.054688 16.949219 72.597656 16.902344 Z M 72.597656 16.902344 " fill-opacity="1" fill-rule="nonzero"/><path fill="#ffffff" d="M 86.765625 32.90625 L 85.6875 33.160156 C 85.089844 33.300781 84.339844 33.34375 83.773438 33.542969 C 83.214844 33.742188 81.34375 34.570312 81.144531 35.074219 C 81.042969 35.324219 80.96875 35.574219 80.949219 36.105469 C 80.902344 37.332031 81.039062 38.492188 80.902344 39.730469 C 80.855469 40.1875 80.792969 40.675781 80.726562 41.007812 C 80.65625 41.339844 80.605469 41.421875 80.484375 41.710938 C 80.230469 42.324219 79.988281 42.570312 80.066406 43.242188 C 80.324219 43.21875 80.542969 43.261719 80.84375 43.175781 C 81.148438 43.089844 81.492188 42.921875 81.859375 42.730469 C 82.230469 42.539062 82.71875 42.261719 83.058594 42.027344 C 83.398438 41.792969 83.71875 41.546875 83.894531 41.328125 C 84.179688 40.96875 84.21875 39.992188 84.3125 39.539062 C 84.390625 39.15625 84.351562 38.96875 84.550781 38.457031 C 84.753906 37.941406 85.210938 37.085938 85.507812 36.476562 C 85.808594 35.871094 86.175781 35.257812 86.347656 34.820312 C 86.5625 34.261719 86.613281 33.503906 86.765625 32.90625 Z M 86.765625 32.90625 " fill-opacity="1" fill-rule="nonzero"/><path fill="#ffffff" d="M 82.367188 48.070312 C 82.1875 47.960938 82.042969 47.703125 81.921875 47.449219 C 81.71875 47.03125 81.484375 46.238281 81.542969 45.765625 C 81.574219 45.523438 81.640625 45.335938 81.816406 45.179688 C 81.996094 45.023438 82.296875 44.972656 82.539062 44.886719 C 83.148438 44.671875 83.234375 44.535156 83.738281 44.191406 C 83.929688 44.0625 84.214844 43.9375 84.390625 43.902344 C 84.5625 43.863281 84.648438 43.832031 84.730469 43.972656 C 84.816406 44.113281 84.804688 44.363281 84.800781 44.59375 C 84.777344 45.453125 84.390625 45.984375 83.945312 46.679688 C 83.816406 46.875 83.648438 47.09375 83.496094 47.265625 C 83.417969 47.359375 82.933594 48.007812 82.878906 48.035156 C 82.75 48.101562 82.546875 48.179688 82.367188 48.070312 Z M 82.367188 48.070312 " fill-opacity="1" fill-rule="nonzero"/><path fill="#ffffff" d="M 81.6875 54.105469 C 81.460938 53.941406 81.175781 53.804688 81.015625 53.605469 C 80.851562 53.40625 80.78125 53.195312 80.746094 52.960938 C 80.699219 52.648438 80.792969 51.980469 81.015625 51.746094 C 81.144531 51.605469 81.375 51.355469 81.550781 51.457031 C 81.820312 51.617188 81.511719 52.632812 81.484375 52.890625 C 81.460938 53.105469 81.484375 53.222656 81.484375 53.390625 Z M 81.6875 54.105469 " fill-opacity="1" fill-rule="nonzero"/><path fill="#ffffff" d="M 79.40625 54.535156 C 79.40625 53.5625 79.074219 52.984375 78.332031 52.316406 C 78.117188 52.125 77.867188 51.832031 77.527344 51.746094 C 77.070312 51.628906 76.148438 51.738281 75.78125 52.101562 C 75.617188 52.265625 75.480469 52.515625 75.445312 52.746094 C 75.410156 52.976562 75.417969 53.203125 75.578125 53.390625 C 76.035156 53.914062 76.589844 53.636719 77.125 53.75 C 77.722656 53.875 78.230469 54.144531 78.867188 54.25 Z M 79.40625 54.535156 " fill-opacity="1" fill-rule="nonzero"/><g clip-path="url(#8f24eb0011)"><path fill="#ffffff" d="M 92.449219 37.542969 C 92.152344 37.820312 91.839844 38.078125 91.5625 38.375 C 90.964844 39.011719 90.445312 39.734375 89.84375 40.375 C 89.445312 40.800781 88.859375 41.25 88.386719 41.875 C 87.914062 42.5 87.40625 43.355469 87.03125 44.097656 C 86.65625 44.839844 86.414062 45.503906 86.144531 46.320312 C 85.875 47.136719 85.625 48.125 85.417969 48.988281 C 85.207031 49.847656 85.078125 50.671875 84.894531 51.488281 C 84.714844 52.304688 84.472656 53.304688 84.324219 53.878906 C 84.175781 54.453125 84.136719 54.667969 84.011719 54.933594 C 83.808594 55.367188 83.460938 55.738281 82.847656 55.847656 C 82.574219 55.894531 82.183594 55.742188 81.980469 55.878906 C 81.777344 56.011719 81.679688 56.207031 81.71875 56.433594 C 81.800781 56.875 82.261719 57.378906 82.875 57.371094 C 84.203125 57.359375 84.476562 56.449219 84.949219 55.15625 C 85.148438 54.605469 85.554688 53.757812 85.9375 53.042969 C 86.320312 52.328125 86.769531 51.617188 87.242188 50.875 C 87.710938 50.136719 88.316406 49.265625 88.75 48.597656 C 89.183594 47.933594 89.539062 47.394531 89.84375 46.875 C 90.148438 46.355469 90.339844 46.007812 90.574219 45.488281 C 90.808594 44.96875 91.035156 44.347656 91.25 43.765625 C 91.46875 43.179688 91.683594 42.625 91.875 41.988281 C 92.339844 40.429688 92.414062 39.160156 92.449219 37.542969 Z M 92.449219 37.542969 " fill-opacity="1" fill-rule="nonzero"/></g><path fill="#ffffff" d="M 72.34375 30.726562 C 72.292969 30.875 72.179688 30.9375 72.046875 30.953125 C 71.910156 30.972656 71.78125 30.953125 71.621094 30.820312 C 71.457031 30.683594 71.3125 30.359375 71.109375 30.183594 C 70.90625 30.007812 70.648438 29.925781 70.429688 29.773438 C 70.207031 29.621094 69.949219 29.476562 69.789062 29.273438 C 69.628906 29.070312 69.554688 28.832031 69.492188 28.59375 C 69.425781 28.355469 69.480469 28.089844 69.40625 27.867188 C 69.335938 27.644531 69.195312 27.453125 69.066406 27.277344 C 68.9375 27.101562 68.75 27.007812 68.640625 26.824219 C 68.53125 26.636719 68.449219 26.40625 68.429688 26.1875 C 68.40625 25.96875 68.4375 25.726562 68.511719 25.550781 C 68.585938 25.375 68.738281 25.308594 68.855469 25.1875 C 68.96875 25.066406 69.070312 24.910156 69.195312 24.824219 C 69.316406 24.738281 69.425781 24.65625 69.578125 24.6875 C 69.726562 24.722656 69.875 24.886719 70.003906 25.007812 C 70.371094 25.359375 70.304688 25.460938 70.855469 25.507812 C 71.03125 25.523438 71.191406 25.558594 71.40625 25.507812 C 72.136719 25.324219 72.96875 24.839844 73.710938 24.910156 C 74.035156 24.941406 74.3125 24.953125 74.640625 25.097656 C 74.96875 25.242188 75.265625 25.445312 75.578125 25.644531 C 75.890625 25.839844 76.269531 26.082031 76.515625 26.277344 C 76.925781 26.617188 77.328125 26.980469 77.746094 27.324219 C 77.960938 27.496094 78.171875 27.679688 78.300781 27.867188 C 78.433594 28.054688 78.476562 28.234375 78.515625 28.414062 C 78.550781 28.589844 78.582031 28.777344 78.515625 28.910156 C 78.449219 29.042969 78.390625 29.101562 78.171875 29.09375 C 77.957031 29.085938 77.542969 28.925781 77.28125 28.867188 C 77.015625 28.804688 76.832031 28.78125 76.597656 28.730469 C 76.363281 28.675781 76.144531 28.546875 75.875 28.546875 C 75.605469 28.546875 75.230469 28.636719 75.023438 28.730469 C 74.269531 29.074219 74.257812 29.292969 73.363281 29.320312 C 73.125 29.328125 72.871094 29.328125 72.683594 29.367188 C 72.496094 29.402344 72.363281 29.46875 72.257812 29.546875 C 72.15625 29.625 72.117188 29.65625 72.089844 29.820312 C 72.058594 29.984375 72.179688 29.964844 72.300781 30.183594 C 72.421875 30.398438 72.390625 30.582031 72.34375 30.726562 Z M 72.34375 30.726562 " fill-opacity="1" fill-rule="nonzero"/><path fill="#ffffff" d="M 76.210938 27.9375 C 75.980469 27.386719 75.929688 27.199219 75.632812 26.78125 C 75.339844 26.367188 74.835938 26.089844 74.433594 25.976562 C 74.027344 25.863281 73.578125 25.804688 73.246094 25.960938 C 72.914062 26.113281 72.660156 26.261719 72.566406 26.511719 C 72.472656 26.757812 72.523438 27 72.707031 27.175781 C 72.890625 27.351562 73.257812 27.277344 73.628906 27.257812 C 74.90625 27.195312 75.117188 27.375 76.210938 27.9375 Z M 76.210938 27.9375 " fill-opacity="1" fill-rule="nonzero"/><path fill="#ffffff" d="M 43.328125 27.34375 C 43.136719 27.015625 43.378906 26.414062 43.554688 26.1875 C 43.757812 25.925781 44.1875 25.4375 44.523438 25.386719 C 44.8125 25.339844 45.574219 25.679688 45.691406 25.96875 C 45.761719 26.148438 45.847656 26.199219 45.792969 26.390625 C 45.664062 26.851562 45.085938 27.078125 44.585938 27.289062 C 44.09375 27.5 43.433594 27.453125 43.328125 27.34375 Z M 43.328125 27.34375 " fill-opacity="1" fill-rule="nonzero"/><path fill="#ffffff" d="M 46.453125 17.082031 C 46.339844 17.171875 46.28125 17.375 46.246094 17.527344 C 45.773438 19.625 45.351562 21.902344 45.042969 24.261719 C 44.992188 24.648438 45.457031 25.164062 45.769531 25.335938 C 46.554688 25.765625 47.28125 25.394531 47.460938 24.386719 C 47.867188 22.09375 47.746094 21.046875 47.730469 19.367188 C 47.726562 18.722656 47.800781 17.929688 47.476562 17.324219 C 47.367188 17.117188 47.144531 17.007812 46.921875 16.984375 C 46.773438 16.964844 46.566406 16.992188 46.453125 17.082031 Z M 46.453125 17.082031 " fill-opacity="1" fill-rule="nonzero"/><path fill="#ffffff" d="M 82.421875 88.484375 C 82.5625 88.453125 82.980469 88.546875 83.160156 88.34375 C 83.34375 88.144531 83.332031 87.773438 83.320312 87.492188 C 83.289062 86.691406 82.597656 85.523438 82.199219 84.890625 C 81.546875 83.859375 80.324219 82.71875 79.347656 82.085938 C 78.113281 81.289062 76.8125 81.085938 75.402344 81.027344 C 74.632812 80.996094 73.78125 80.949219 73.160156 81.503906 C 72.191406 82.367188 70.867188 84.511719 72.582031 85.234375 C 72.9375 85.382812 73.226562 85.484375 73.992188 85.644531 C 74.757812 85.804688 76.234375 85.910156 77.167969 86.191406 C 78.097656 86.472656 78.855469 86.988281 79.539062 87.320312 C 80.59375 87.828125 81.40625 88.183594 82.519531 88.484375 C 82.742188 88.542969 82.285156 88.511719 82.421875 88.484375 Z M 82.421875 88.484375 " fill-opacity="1" fill-rule="nonzero"/><path fill="#ffffff" d="M 52.988281 92.089844 C 53.082031 91.667969 53.175781 91.230469 53.277344 90.816406 C 53.5 89.921875 53.605469 89.652344 54.144531 88.964844 C 54.332031 88.726562 54.832031 88.546875 54.722656 88.195312 C 54.539062 87.601562 52.941406 87.34375 52.445312 87.308594 C 52.101562 87.28125 51.878906 87.320312 51.683594 87.421875 C 51.488281 87.527344 51.417969 87.648438 51.359375 87.886719 C 51.253906 88.332031 51.320312 89.390625 51.46875 89.816406 C 51.609375 90.222656 51.949219 90.714844 52.191406 91.164062 L 52.734375 92.050781 Z M 52.988281 92.089844 " fill-opacity="1" fill-rule="nonzero"/><path fill="#ffffff" d="M 58.84375 87.847656 C 59.316406 87.929688 59.875 87.300781 59.785156 86.804688 C 59.746094 86.585938 59.597656 86.292969 59.386719 86.113281 C 59.179688 85.929688 58.914062 85.859375 58.59375 85.765625 C 57.5625 85.453125 57.492188 85.574219 56.710938 84.722656 C 56.453125 84.441406 56.199219 84 55.914062 83.835938 C 55.632812 83.667969 55.320312 83.660156 55.121094 83.796875 C 54.464844 84.246094 55.613281 86.054688 55.953125 86.382812 C 56.484375 86.898438 57.414062 87.332031 58.085938 87.617188 C 58.386719 87.746094 58.625 87.808594 58.84375 87.847656 Z M 58.84375 87.847656 " fill-opacity="1" fill-rule="nonzero"/><path fill="#ffffff" d="M 58.75 84.511719 C 58.75 84.125 58.816406 83.746094 58.75 83.355469 C 58.570312 82.277344 58.402344 81.730469 58.390625 80.558594 C 58.386719 80.023438 58.390625 79.371094 58.328125 78.984375 C 58.269531 78.597656 58.277344 78.386719 58.027344 78.277344 C 57.777344 78.167969 57.480469 78.230469 57.15625 78.472656 C 56.828125 78.710938 56.425781 79.242188 56.160156 79.660156 C 55.898438 80.078125 55.667969 80.542969 55.589844 80.945312 C 55.511719 81.347656 55.589844 81.660156 55.710938 81.972656 C 56 82.722656 56.96875 83.40625 57.515625 83.933594 L 58.269531 84.351562 Z M 58.75 84.511719 " fill-opacity="1" fill-rule="nonzero"/><path fill="#ffffff" d="M 65.109375 79.695312 C 65.273438 79.605469 65.375 79.519531 65.429688 79.167969 C 65.484375 78.8125 65.523438 78.152344 65.429688 77.644531 C 65.335938 77.136719 65.246094 76.710938 64.875 76.183594 C 64.503906 75.652344 63.828125 74.976562 63.242188 74.535156 C 62.660156 74.09375 61.980469 73.8125 61.40625 73.570312 C 60.835938 73.332031 60.222656 73.148438 59.835938 73.105469 C 59.449219 73.0625 59.316406 73.1875 59.164062 73.324219 C 59.011719 73.457031 59.035156 73.660156 59.019531 73.820312 C 58.964844 74.390625 59.417969 74.578125 59.777344 74.941406 C 60.136719 75.300781 60.78125 75.960938 61.234375 76.433594 C 61.683594 76.902344 62.125 77.355469 62.484375 77.769531 C 62.847656 78.183594 63.128906 78.652344 63.390625 78.917969 C 63.679688 79.214844 64.746094 79.894531 65.109375 79.695312 Z M 65.109375 79.695312 " fill-opacity="1" fill-rule="nonzero"/><path fill="#ffffff" d="M 52.410156 81.210938 C 52.785156 80.800781 53.222656 80.40625 53.53125 79.980469 C 54.242188 79 54.449219 78.21875 54.3125 76.976562 C 54.132812 75.355469 53.640625 74.171875 52.785156 72.847656 C 52.382812 72.226562 51.855469 71.605469 51.394531 70.964844 C 50.375 69.5625 49.445312 68.191406 48.167969 67.019531 C 47.640625 66.535156 47.277344 66.3125 46.847656 66.113281 C 46.09375 65.773438 45.375 65.695312 44.777344 66.367188 C 44.316406 66.882812 44.082031 67.769531 44.164062 68.46875 C 44.300781 69.605469 44.910156 70.828125 45.554688 71.726562 C 45.996094 72.332031 46.6875 73.015625 47.183594 73.535156 C 47.683594 74.054688 48.011719 74.386719 48.542969 74.839844 C 49.777344 75.890625 50.695312 76.375 51.496094 77.917969 C 51.761719 78.433594 51.851562 78.878906 51.96875 79.328125 C 52.089844 79.777344 52.128906 80.171875 52.207031 80.59375 L 52.105469 81.175781 Z M 52.410156 81.210938 " fill-opacity="1" fill-rule="nonzero"/><path fill="#ffffff" d="M 41.054688 63.441406 C 40.523438 63.441406 40.144531 63.523438 39.410156 63.554688 C 38.675781 63.582031 37.84375 63.476562 37.234375 63.554688 C 36.628906 63.628906 36.261719 63.863281 35.800781 64.007812 C 35.34375 64.148438 34.894531 64.210938 34.476562 64.402344 C 34.054688 64.59375 33.613281 64.871094 33.308594 65.136719 C 33.003906 65.40625 32.75 65.753906 32.671875 65.988281 C 32.59375 66.222656 32.617188 66.171875 32.9375 66.269531 C 33.253906 66.367188 33.871094 66.523438 34.527344 66.554688 C 35.1875 66.582031 36.191406 66.507812 36.863281 66.441406 C 37.535156 66.375 38.011719 66.261719 38.5625 66.15625 C 39.109375 66.054688 39.714844 66.066406 40.152344 65.816406 C 40.589844 65.570312 40.753906 65.101562 41.054688 64.742188 L 41.109375 63.269531 Z M 41.054688 63.441406 " fill-opacity="1" fill-rule="nonzero"/><path fill="#ffffff" d="M 27.789062 54.554688 C 27.613281 54.722656 27.507812 54.835938 27.261719 55.0625 C 27.011719 55.289062 26.742188 55.636719 26.304688 55.910156 C 25.867188 56.1875 25.246094 56.46875 24.660156 56.703125 C 24.074219 56.941406 23.332031 57.15625 22.804688 57.328125 C 22.273438 57.496094 21.859375 57.582031 21.476562 57.722656 C 21.09375 57.863281 20.75 58 20.523438 58.175781 C 20.292969 58.351562 20.207031 58.53125 20.148438 58.742188 C 20.09375 58.953125 20.070312 59.179688 20.203125 59.363281 C 20.335938 59.546875 20.429688 59.664062 20.839844 59.703125 C 21.25 59.742188 21.941406 59.703125 22.589844 59.589844 C 23.238281 59.476562 24.023438 59.203125 24.714844 59.023438 C 25.402344 58.847656 26.085938 58.582031 26.730469 58.515625 C 27.371094 58.449219 27.945312 58.503906 28.535156 58.628906 C 29.121094 58.753906 29.53125 59.070312 30.230469 59.25 C 30.933594 59.429688 31.730469 59.636719 32.726562 59.703125 C 33.71875 59.769531 35.296875 59.773438 36.171875 59.648438 C 37.050781 59.523438 37.394531 59.167969 37.925781 58.96875 C 38.453125 58.769531 39.042969 58.683594 39.355469 58.460938 C 39.671875 58.234375 39.800781 58.019531 39.675781 57.722656 C 39.546875 57.425781 39.292969 57.28125 38.773438 57.101562 C 38.253906 56.917969 37.351562 56.769531 36.597656 56.648438 C 35.847656 56.523438 35.03125 56.460938 34.261719 56.363281 C 33.492188 56.269531 32.613281 56.203125 31.980469 56.082031 C 31.351562 55.957031 30.984375 55.796875 30.496094 55.628906 C 30.007812 55.460938 29.542969 55.25 29.0625 55.0625 Z M 27.789062 54.554688 " fill-opacity="1" fill-rule="nonzero"/><path fill="#ffffff" d="M 8.742188 51.214844 C 8.503906 51.203125 8.039062 51.0625 7.789062 51.101562 C 7.339844 51.167969 6.875 51.636719 7.097656 52.175781 C 7.175781 52.367188 7.359375 52.539062 7.574219 52.628906 C 8.179688 52.878906 9.503906 53.148438 10.175781 53.308594 C 10.691406 53.429688 11.507812 53.582031 12.191406 53.648438 C 12.875 53.714844 13.570312 53.722656 14.261719 53.703125 C 14.953125 53.6875 15.679688 53.65625 16.332031 53.535156 C 16.980469 53.410156 17.574219 53.195312 18.132812 52.96875 C 18.691406 52.742188 19.015625 52.582031 19.671875 52.175781 C 20.328125 51.769531 21.46875 51.082031 22.058594 50.535156 C 22.652344 49.988281 22.921875 49.449219 23.175781 48.949219 C 23.425781 48.453125 23.527344 47.984375 23.546875 47.589844 C 23.566406 47.199219 23.53125 46.871094 23.28125 46.6875 C 23.027344 46.5 22.664062 46.667969 22.324219 46.6875 C 21.988281 46.703125 21.621094 46.695312 21.265625 46.796875 C 20.90625 46.902344 20.65625 47.042969 20.203125 47.308594 C 19.75 47.574219 19.0625 48.015625 18.558594 48.382812 C 18.054688 48.753906 17.683594 49.148438 17.179688 49.515625 C 16.675781 49.882812 16.003906 50.328125 15.535156 50.589844 C 15.0625 50.855469 14.785156 50.988281 14.367188 51.101562 C 13.949219 51.214844 13.507812 51.222656 13.039062 51.269531 C 12.570312 51.316406 12.015625 51.375 11.554688 51.382812 C 11.09375 51.394531 10.644531 51.347656 10.28125 51.328125 C 9.917969 51.308594 9.636719 51.289062 9.378906 51.269531 C 9.125 51.25 8.980469 51.222656 8.742188 51.214844 Z M 8.742188 51.214844 " fill-opacity="1" fill-rule="nonzero"/><path fill="#ffffff" d="M 41.855469 15.425781 C 42.304688 17.011719 41.941406 19.300781 41.855469 20.917969 C 41.824219 21.570312 41.789062 22.316406 41.789062 22.871094 C 41.789062 23.425781 41.777344 23.851562 41.855469 24.242188 C 41.9375 24.632812 41.996094 24.964844 42.261719 25.183594 C 42.878906 25.679688 44.027344 25.382812 44.226562 24.53125 C 44.691406 22.566406 44.910156 19.703125 45.109375 17.304688 C 45.160156 16.695312 44.933594 16.113281 44.769531 15.714844 C 44.605469 15.320312 44.445312 15.15625 44.160156 14.992188 C 43.875 14.828125 43.410156 14.789062 43.144531 14.777344 C 42.773438 14.757812 42.199219 14.976562 41.808594 15.035156 Z M 41.855469 15.425781 " fill-opacity="1" fill-rule="nonzero"/><path fill="#ffffff" d="M 38.269531 17.164062 C 38.257812 18.511719 37.882812 21.316406 38.269531 22.507812 C 38.375 22.835938 38.648438 23.167969 38.878906 23.449219 C 39.105469 23.726562 39.328125 24.050781 39.621094 24.171875 C 39.917969 24.289062 40.246094 24.488281 40.503906 24.097656 C 40.761719 23.707031 40.773438 23.136719 40.910156 22.21875 C 41.042969 21.304688 41.269531 19.429688 41.316406 18.605469 C 41.359375 17.777344 41.546875 15.324219 40.773438 14.777344 C 40.410156 14.519531 39.792969 14.453125 39.148438 14.199219 C 38.503906 13.945312 37.730469 13.511719 36.914062 13.257812 C 36.097656 13.007812 35.210938 12.828125 34.273438 12.679688 C 33.332031 12.535156 32.183594 12.441406 31.292969 12.394531 C 30.398438 12.34375 29.644531 12.34375 28.921875 12.394531 C 28.195312 12.441406 27.535156 12.535156 26.957031 12.679688 C 26.378906 12.828125 25.875 12.886719 25.464844 13.257812 C 25.058594 13.632812 24.835938 14.289062 24.652344 14.777344 C 24.472656 15.265625 24.617188 15.699219 24.382812 16.148438 C 23.753906 17.359375 22.28125 18.535156 21.472656 19.691406 C 20.773438 20.683594 19.976562 21.988281 19.4375 23.085938 C 19.023438 23.9375 18.765625 24.886719 18.355469 25.761719 L 18.289062 26.410156 C 18.605469 26.339844 18.691406 26.601562 19.234375 26.195312 C 19.78125 25.785156 20.679688 24.84375 21.472656 24.027344 C 23.203125 22.230469 24.683594 20.5625 25.804688 18.246094 C 26.171875 17.492188 26.121094 17.351562 26.144531 16.800781 C 26.167969 16.25 25.90625 15.46875 25.941406 14.992188 C 25.976562 14.519531 26.105469 14.238281 26.347656 14.054688 C 26.589844 13.867188 26.8125 13.761719 27.160156 14.054688 C 27.507812 14.347656 27.902344 15.210938 28.242188 15.644531 C 28.582031 16.078125 28.816406 16.339844 29.191406 16.65625 C 29.566406 16.972656 30.046875 17.328125 30.480469 17.523438 C 31.625 18.042969 32.585938 17.828125 33.414062 17.953125 C 33.75 18.007812 33.640625 18.421875 34.429688 18.515625 C 34.707031 18.550781 35.058594 18.4375 35.09375 18.777344 C 35.132812 19.113281 35.027344 19.457031 35.015625 20.050781 C 35.003906 20.644531 34.972656 21.792969 35.152344 22.292969 C 35.328125 22.792969 35.75 22.847656 36.0625 22.933594 C 36.371094 23.019531 36.695312 23.011719 36.980469 22.796875 C 37.265625 22.585938 37.25 22.585938 37.320312 21.714844 C 37.386719 20.839844 37.667969 18.371094 37.679688 17.511719 C 37.695312 16.390625 37.132812 17.027344 37.199219 15.9375 C 37.230469 15.421875 37.941406 15.207031 38.308594 15.402344 C 38.496094 15.503906 38.28125 16.109375 38.269531 17.164062 Z M 38.269531 17.164062 " fill-opacity="1" fill-rule="nonzero"/><path fill="#ffffff" d="M 24.253906 22.804688 C 24.503906 23.398438 24.789062 23.949219 25 24.585938 C 25.210938 25.222656 25.449219 25.945312 25.519531 26.609375 C 25.585938 27.273438 25.527344 27.910156 25.402344 28.511719 C 25.277344 29.113281 24.933594 29.730469 24.769531 30.167969 C 24.609375 30.609375 24.457031 30.8125 24.425781 31.148438 C 24.394531 31.488281 24.46875 31.84375 24.597656 32.132812 C 24.726562 32.417969 25.050781 32.441406 25.171875 32.808594 C 25.292969 33.171875 25.328125 33.75 25.289062 34.21875 C 25.25 34.683594 25.199219 35.097656 24.941406 35.566406 C 24.6875 36.039062 24.148438 36.507812 23.792969 36.980469 C 23.4375 37.449219 23.046875 37.902344 22.816406 38.390625 C 22.582031 38.878906 22.527344 39.390625 22.414062 39.863281 C 21.929688 41.84375 21.152344 42.445312 19.132812 42.992188 C 17.992188 43.300781 15.871094 43.625 14.765625 43.113281 C 13.554688 42.554688 13.101562 41.148438 13.039062 39.863281 C 12.9375 37.777344 13.300781 35.195312 14.246094 33.359375 C 15.410156 31.101562 17.449219 29.367188 19.25 27.714844 C 20.074219 26.957031 21.039062 26.191406 21.722656 25.507812 C 22.40625 24.820312 22.796875 24.238281 23.332031 23.605469 L 24.082031 22.929688 L 24.253906 22.808594 Z M 24.253906 22.804688 " fill-opacity="1" fill-rule="nonzero"/><g clip-path="url(#8c608b2be8)"><path fill="#ffffff" d="M 105.171875 77.917969 C 104.902344 78.292969 104.742188 78.6875 104.363281 79.046875 C 103.980469 79.410156 103.4375 79.726562 102.925781 80.046875 C 102.414062 80.371094 101.96875 80.777344 101.300781 80.980469 C 100.632812 81.183594 99.671875 81.113281 98.992188 81.246094 C 98.3125 81.378906 97.808594 81.523438 97.242188 81.78125 C 96.675781 82.039062 96.050781 82.40625 95.621094 82.78125 C 94.339844 83.878906 94.457031 84.289062 92.496094 84.578125 C 90.667969 84.847656 88.773438 84.601562 86.941406 84.910156 C 84.972656 85.246094 84.878906 86.269531 84.003906 83.910156 C 83.785156 83.324219 83.632812 82.503906 83.378906 81.914062 C 83.128906 81.320312 82.835938 80.789062 82.503906 80.382812 C 82.175781 79.972656 81.890625 79.6875 81.445312 79.515625 C 81 79.339844 80.507812 79.414062 79.945312 79.382812 C 79.382812 79.347656 78.625 79.371094 78.070312 79.316406 C 77.519531 79.257812 76.976562 79.199219 76.636719 79.046875 C 76.296875 78.898438 76.253906 78.703125 76.136719 78.449219 C 76.019531 78.195312 75.902344 77.835938 75.949219 77.582031 C 75.996094 77.328125 76.03125 77.253906 76.386719 77.117188 C 76.742188 76.980469 77.480469 76.996094 78.011719 76.785156 C 78.539062 76.570312 79.039062 76.339844 79.507812 75.851562 C 79.976562 75.363281 80.441406 74.535156 80.757812 73.917969 C 81.070312 73.304688 81.171875 72.625 81.382812 72.1875 C 81.59375 71.75 81.738281 71.480469 82.007812 71.320312 C 82.273438 71.160156 82.585938 70.933594 82.816406 71.320312 C 83.050781 71.707031 82.921875 72.363281 83.128906 73.1875 C 83.339844 74.007812 83.765625 75.4375 84.066406 76.25 C 84.371094 77.0625 84.492188 77.503906 84.941406 78.050781 C 85.390625 78.597656 85.984375 79.054688 86.691406 79.449219 C 87.394531 79.839844 88.101562 80.136719 89.125 80.382812 C 90.152344 80.625 91.65625 80.890625 92.808594 80.914062 C 93.964844 80.9375 94.808594 80.703125 95.992188 80.515625 C 97.179688 80.324219 98.839844 80.082031 99.929688 79.78125 C 101.015625 79.480469 101.789062 78.992188 102.488281 78.714844 C 103.1875 78.4375 103.570312 78.316406 104.113281 78.117188 Z M 105.171875 77.917969 " fill-opacity="1" fill-rule="nonzero"/></g><path fill="#ffffff" d="M 53.570312 60.289062 C 53.714844 61.148438 53.90625 61.992188 54.4375 63.0625 C 54.964844 64.132812 55.769531 65.449219 56.714844 66.648438 C 58.535156 68.964844 60.898438 71.3125 63.324219 72.894531 C 64.632812 73.746094 66.421875 74.757812 67.878906 75.324219 C 70.363281 76.285156 73.546875 76.710938 76.117188 75.902344 C 78.179688 75.253906 80.785156 72.183594 80.996094 69.773438 C 81.054688 69.121094 80.957031 68.550781 80.5625 68.152344 C 79.867188 67.449219 78.234375 67.941406 77.527344 67.113281 C 77.277344 66.816406 77.503906 66.625 77.851562 66.417969 C 78.910156 65.792969 80.832031 66.253906 81.648438 65.492188 C 82.367188 64.820312 82.175781 62.1875 81.863281 61.328125 C 81.582031 60.554688 80.363281 59.347656 79.695312 58.898438 C 79.359375 58.671875 77.960938 58.523438 78.179688 57.742188 C 78.265625 57.425781 78.710938 57.4375 79.046875 57.394531 C 79.640625 57.324219 80.15625 57.507812 80.78125 57.394531 C 80.527344 57.050781 80.464844 56.710938 80.019531 56.355469 C 78.433594 55.082031 76.917969 54.539062 75.015625 54.195312 C 73.332031 53.890625 70.941406 53.765625 69.351562 53.058594 C 67.066406 52.039062 65.203125 51.023438 63.109375 49.648438 C 58.746094 46.777344 55.417969 44.496094 50.066406 44.597656 C 48.417969 44.628906 46.328125 45.257812 44.789062 45.945312 C 44.222656 46.199219 43.710938 46.578125 43.378906 46.871094 C 43.046875 47.164062 42.898438 47.417969 42.835938 47.679688 C 42.777344 47.941406 42.765625 48.054688 43.054688 48.257812 C 43.34375 48.464844 44.15625 48.53125 44.464844 48.835938 C 44.769531 49.140625 44.746094 49.597656 44.679688 49.878906 C 44.613281 50.160156 44.5625 50.265625 44.136719 50.226562 C 43.714844 50.183594 42.875 50.023438 42.296875 49.648438 C 41.71875 49.269531 41.285156 48.566406 40.777344 48.027344 C 40.273438 47.488281 39.804688 46.910156 39.261719 46.410156 C 38.195312 45.421875 36.703125 44.078125 35.464844 43.402344 C 33.808594 42.496094 31.160156 42.238281 29.394531 42.707031 C 28.808594 42.863281 27.988281 43.074219 27.550781 43.515625 C 27.117188 43.960938 27.027344 44.625 27.011719 45.136719 C 26.992188 45.648438 27.207031 45.960938 27.445312 46.410156 C 28.199219 47.832031 29.457031 48.835938 30.695312 49.761719 C 32.535156 51.140625 34.074219 51.910156 36.222656 52.539062 C 38.710938 53.265625 40.523438 53.515625 43.054688 53.578125 C 43.8125 53.597656 44.28125 53.617188 44.789062 53.695312 C 45.296875 53.773438 45.796875 53.796875 46.089844 54.042969 C 46.382812 54.289062 46.453125 54.71875 46.304688 54.96875 C 46.160156 55.214844 45.898438 55.085938 45.546875 54.96875 C 45.195312 54.847656 44.71875 54.355469 44.246094 54.273438 C 43.773438 54.191406 43.226562 54.347656 42.835938 54.503906 C 42.445312 54.664062 42.117188 54.886719 41.96875 55.199219 C 41.824219 55.511719 41.886719 55.777344 42.078125 56.125 C 42.269531 56.46875 42.632812 56.851562 43.054688 57.164062 C 43.476562 57.476562 43.902344 57.664062 44.570312 57.972656 C 45.613281 58.453125 47.796875 59.710938 48.910156 59.710938 C 49.414062 59.710938 49.582031 59.597656 49.777344 59.015625 C 49.96875 58.433594 50.027344 57.25 49.992188 56.472656 C 49.957031 55.691406 49.722656 55.027344 49.558594 54.390625 C 49.394531 53.753906 49.277344 53.128906 49.015625 52.65625 C 48.757812 52.179688 48.328125 51.921875 48.039062 51.613281 C 47.75 51.304688 47.554688 51.054688 47.28125 50.804688 C 47.011719 50.550781 46.617188 50.347656 46.414062 50.109375 C 46.210938 49.871094 45.984375 49.667969 46.089844 49.414062 C 46.195312 49.164062 46.390625 49.007812 46.847656 49.070312 C 47.308594 49.128906 47.980469 49.335938 48.691406 49.761719 C 53.375 52.582031 52.761719 55.535156 53.570312 60.289062 Z M 53.570312 60.289062 " fill-opacity="1" fill-rule="nonzero"/><g fill="#ffffff" fill-opacity="1"><g transform="translate(86.968236, 39.975863)"><g><path d="M 39.46875 0 L 29.484375 0 L 27.265625 -3.84375 L 12.453125 -3.84375 L 10.234375 0 L 0.25 0 L 15.28125 -23.484375 L 24.4375 -23.484375 Z M 23.953125 -9.671875 L 19.875 -16.796875 L 15.78125 -9.671875 Z M 23.953125 -9.671875 "/></g></g></g><g fill="#ffffff" fill-opacity="1"><g transform="translate(126.688549, 39.975863)"><g><path d="M 19.46875 0 L 2.625 0 L 2.625 -23.484375 L 19.84375 -23.484375 C 22.894531 -23.484375 25.410156 -23.34375 27.390625 -23.0625 C 29.367188 -22.789062 30.890625 -22.359375 31.953125 -21.765625 C 33.023438 -21.171875 33.75 -20.410156 34.125 -19.484375 C 34.507812 -18.566406 34.703125 -17.472656 34.703125 -16.203125 C 34.671875 -15.191406 34.394531 -14.359375 33.875 -13.703125 C 33.363281 -13.046875 32.757812 -12.554688 32.0625 -12.234375 C 31.375 -11.910156 30.765625 -11.75 30.234375 -11.75 C 30.753906 -11.75 31.359375 -11.644531 32.046875 -11.4375 C 32.734375 -11.238281 33.398438 -10.945312 34.046875 -10.5625 C 34.691406 -10.175781 35.226562 -9.710938 35.65625 -9.171875 C 36.09375 -8.628906 36.3125 -8.007812 36.3125 -7.3125 C 36.3125 -6.382812 36.203125 -5.539062 35.984375 -4.78125 C 35.773438 -4.019531 35.351562 -3.34375 34.71875 -2.75 C 34.082031 -2.164062 33.140625 -1.664062 31.890625 -1.25 C 30.648438 -0.84375 29.019531 -0.53125 27 -0.3125 C 24.988281 -0.101562 22.476562 0 19.46875 0 Z M 18.921875 -13.765625 C 20.359375 -13.765625 21.472656 -13.832031 22.265625 -13.96875 C 23.054688 -14.113281 23.601562 -14.328125 23.90625 -14.609375 C 24.21875 -14.898438 24.375 -15.269531 24.375 -15.71875 C 24.375 -16.175781 24.21875 -16.550781 23.90625 -16.84375 C 23.601562 -17.132812 23.054688 -17.347656 22.265625 -17.484375 C 21.472656 -17.617188 20.359375 -17.6875 18.921875 -17.6875 L 12.484375 -17.6875 L 12.484375 -13.765625 Z M 18.921875 -5.796875 C 20.390625 -5.796875 21.582031 -5.832031 22.5 -5.90625 C 23.414062 -5.988281 24.085938 -6.164062 24.515625 -6.4375 C 24.941406 -6.707031 25.15625 -7.148438 25.15625 -7.765625 C 25.15625 -8.378906 24.941406 -8.820312 24.515625 -9.09375 C 24.085938 -9.375 23.414062 -9.550781 22.5 -9.625 C 21.582031 -9.695312 20.390625 -9.734375 18.921875 -9.734375 L 12.484375 -9.734375 L 12.484375 -5.796875 Z M 18.921875 -5.796875 "/></g></g></g><g fill="#ffffff" fill-opacity="1"><g transform="translate(164.312285, 39.975863)"><g><path d="M 17.765625 0.5 C 11.960938 0.5 7.691406 -0.691406 4.953125 -3.078125 C 2.523438 -5.179688 1.3125 -8.066406 1.3125 -11.734375 C 1.3125 -15.390625 2.523438 -18.273438 4.953125 -20.390625 C 7.691406 -22.773438 11.960938 -23.96875 17.765625 -23.96875 C 21.179688 -23.96875 24 -23.578125 26.21875 -22.796875 C 28.445312 -22.015625 30.175781 -20.945312 31.40625 -19.59375 C 32.644531 -18.238281 33.46875 -16.6875 33.875 -14.9375 L 23.5 -14.9375 C 22.46875 -16.757812 20.554688 -17.671875 17.765625 -17.671875 C 15.390625 -17.671875 13.640625 -16.984375 12.515625 -15.609375 C 11.617188 -14.515625 11.171875 -13.222656 11.171875 -11.734375 C 11.171875 -10.234375 11.617188 -8.9375 12.515625 -7.84375 C 13.640625 -6.46875 15.390625 -5.78125 17.765625 -5.78125 C 20.554688 -5.78125 22.46875 -6.695312 23.5 -8.53125 L 33.875 -8.53125 C 33.46875 -6.769531 32.644531 -5.210938 31.40625 -3.859375 C 30.175781 -2.503906 28.445312 -1.4375 26.21875 -0.65625 C 24 0.113281 21.179688 0.5 17.765625 0.5 Z M 17.765625 0.5 "/></g></g></g><g fill="#ffffff" fill-opacity="1"><g transform="translate(86.968236, 68.283294)"><g><path d="M 34.71875 0 L 24.859375 0 L 24.859375 -9.484375 L 12.484375 -9.484375 L 12.484375 0 L 2.625 0 L 2.625 -23.5 L 12.484375 -23.5 L 12.484375 -14 L 24.859375 -14 L 24.859375 -23.5 L 34.71875 -23.5 Z M 34.71875 0 "/></g></g></g><g fill="#ffffff" fill-opacity="1"><g transform="translate(124.313519, 68.283294)"><g><path d="M 30.921875 0 L 2.625 0 L 2.625 -23.5 L 29.625 -23.5 L 29.625 -17.6875 L 12.484375 -17.6875 L 12.484375 -14 L 26.984375 -14 L 26.984375 -9.484375 L 12.484375 -9.484375 L 12.484375 -5.8125 L 30.921875 -5.8125 Z M 30.921875 0 "/></g></g></g><g fill="#ffffff" fill-opacity="1"><g transform="translate(156.548396, 68.283294)"><g><path d="M 39.46875 0 L 29.484375 0 L 27.265625 -3.84375 L 12.453125 -3.84375 L 10.234375 0 L 0.25 0 L 15.28125 -23.484375 L 24.4375 -23.484375 Z M 23.953125 -9.671875 L 19.875 -16.796875 L 15.78125 -9.671875 Z M 23.953125 -9.671875 "/></g></g></g><g fill="#ffffff" fill-opacity="1"><g transform="translate(196.26871, 68.283294)"><g><path d="M 30.0625 0 L 2.625 0 L 2.625 -23.5 L 12.484375 -23.5 L 12.484375 -5.8125 L 30.0625 -5.8125 Z M 30.0625 0 "/></g></g></g><g fill="#ffffff" fill-opacity="1"><g transform="translate(226.980292, 68.283294)"><g><path d="M 20.046875 0 L 10.1875 0 L 10.1875 -17.6875 L 0.984375 -17.6875 L 0.984375 -23.5 L 29.25 -23.5 L 29.25 -17.6875 L 20.046875 -17.6875 Z M 20.046875 0 "/></g></g></g><g fill="#ffffff" fill-opacity="1"><g transform="translate(257.216869, 68.283294)"><g><path d="M 34.71875 0 L 24.859375 0 L 24.859375 -9.484375 L 12.484375 -9.484375 L 12.484375 0 L 2.625 0 L 2.625 -23.5 L 12.484375 -23.5 L 12.484375 -14 L 24.859375 -14 L 24.859375 -23.5 L 34.71875 -23.5 Z M 34.71875 0 "/></g></g></g><g fill="#ffffff" fill-opacity="1"><g transform="translate(86.968236, 96.590726)"><g><path d="M 12.484375 0 L 2.625 0 L 2.625 -23.5 L 29.625 -23.5 L 29.625 -17.6875 L 12.484375 -17.6875 L 12.484375 -14 L 26.984375 -14 L 26.984375 -9.484375 L 12.484375 -9.484375 Z M 12.484375 0 "/></g></g></g><g fill="#ffffff" fill-opacity="1"><g transform="translate(117.909131, 96.590726)"><g><path d="M 12.484375 0 L 2.625 0 L 2.625 -23.5 L 12.484375 -23.5 Z M 12.484375 0 "/></g></g></g><g fill="#ffffff" fill-opacity="1"><g transform="translate(133.01104, 96.590726)"><g><path d="M 20.046875 0 L 10.1875 0 L 10.1875 -17.6875 L 0.984375 -17.6875 L 0.984375 -23.5 L 29.25 -23.5 L 29.25 -17.6875 L 20.046875 -17.6875 Z M 20.046875 0 "/></g></g></g><g fill="#ffffff" fill-opacity="1"><g transform="translate(163.247617, 96.590726)"><g><path d="M 37.5 0 L 25.765625 0 L 12.484375 -15.90625 L 12.484375 0 L 2.625 0 L 2.625 -23.5 L 14.34375 -23.5 L 27.640625 -7.6875 L 27.640625 -23.5 L 37.5 -23.5 Z M 37.5 0 "/></g></g></g><g fill="#ffffff" fill-opacity="1"><g transform="translate(203.361038, 96.590726)"><g><path d="M 30.921875 0 L 2.625 0 L 2.625 -23.5 L 29.625 -23.5 L 29.625 -17.6875 L 12.484375 -17.6875 L 12.484375 -14 L 26.984375 -14 L 26.984375 -9.484375 L 12.484375 -9.484375 L 12.484375 -5.8125 L 30.921875 -5.8125 Z M 30.921875 0 "/></g></g></g><g fill="#ffffff" fill-opacity="1"><g transform="translate(235.595915, 96.590726)"><g><path d="M 15.53125 0.5 C 12.351562 0.5 9.789062 0.160156 7.84375 -0.515625 C 5.90625 -1.203125 4.425781 -2.140625 3.40625 -3.328125 C 2.394531 -4.523438 1.710938 -5.90625 1.359375 -7.46875 L 11.828125 -7.46875 C 12.597656 -6.351562 13.832031 -5.796875 15.53125 -5.796875 C 17.21875 -5.796875 18.453125 -6.351562 19.234375 -7.46875 C 19.296875 -7.582031 19.328125 -7.679688 19.328125 -7.765625 C 19.328125 -8.054688 18.9375 -8.273438 18.15625 -8.421875 C 17.375 -8.578125 16.207031 -8.691406 14.65625 -8.765625 C 12.707031 -8.847656 10.65625 -9.054688 8.5 -9.390625 C 3.707031 -10.128906 1.3125 -12.054688 1.3125 -15.171875 C 1.3125 -15.429688 1.328125 -15.707031 1.359375 -16 C 1.710938 -17.5625 2.394531 -18.941406 3.40625 -20.140625 C 4.425781 -21.335938 5.90625 -22.273438 7.84375 -22.953125 C 9.789062 -23.640625 12.351562 -23.984375 15.53125 -23.984375 C 18.707031 -23.984375 21.265625 -23.640625 23.203125 -22.953125 C 25.148438 -22.273438 26.628906 -21.335938 27.640625 -20.140625 C 28.660156 -18.941406 29.347656 -17.5625 29.703125 -16 L 19.234375 -16 C 18.453125 -17.113281 17.21875 -17.671875 15.53125 -17.671875 C 13.832031 -17.671875 12.597656 -17.113281 11.828125 -16 C 11.773438 -15.914062 11.75 -15.835938 11.75 -15.765625 C 11.75 -15.492188 12.117188 -15.296875 12.859375 -15.171875 C 13.609375 -15.046875 14.710938 -14.9375 16.171875 -14.84375 C 17.628906 -14.757812 19.179688 -14.617188 20.828125 -14.421875 C 22.484375 -14.234375 24.03125 -13.894531 25.46875 -13.40625 C 26.90625 -12.914062 28.023438 -12.195312 28.828125 -11.25 C 29.460938 -10.519531 29.78125 -9.59375 29.78125 -8.46875 C 29.78125 -8.15625 29.753906 -7.820312 29.703125 -7.46875 C 29.347656 -5.90625 28.660156 -4.523438 27.640625 -3.328125 C 26.628906 -2.140625 25.148438 -1.203125 23.203125 -0.515625 C 21.265625 0.160156 18.707031 0.5 15.53125 0.5 Z M 15.53125 0.5 "/></g></g></g><g fill="#ffffff" fill-opacity="1"><g transform="translate(266.684226, 96.590726)"><g><path d="M 15.53125 0.5 C 12.351562 0.5 9.789062 0.160156 7.84375 -0.515625 C 5.90625 -1.203125 4.425781 -2.140625 3.40625 -3.328125 C 2.394531 -4.523438 1.710938 -5.90625 1.359375 -7.46875 L 11.828125 -7.46875 C 12.597656 -6.351562 13.832031 -5.796875 15.53125 -5.796875 C 17.21875 -5.796875 18.453125 -6.351562 19.234375 -7.46875 C 19.296875 -7.582031 19.328125 -7.679688 19.328125 -7.765625 C 19.328125 -8.054688 18.9375 -8.273438 18.15625 -8.421875 C 17.375 -8.578125 16.207031 -8.691406 14.65625 -8.765625 C 12.707031 -8.847656 10.65625 -9.054688 8.5 -9.390625 C 3.707031 -10.128906 1.3125 -12.054688 1.3125 -15.171875 C 1.3125 -15.429688 1.328125 -15.707031 1.359375 -16 C 1.710938 -17.5625 2.394531 -18.941406 3.40625 -20.140625 C 4.425781 -21.335938 5.90625 -22.273438 7.84375 -22.953125 C 9.789062 -23.640625 12.351562 -23.984375 15.53125 -23.984375 C 18.707031 -23.984375 21.265625 -23.640625 23.203125 -22.953125 C 25.148438 -22.273438 26.628906 -21.335938 27.640625 -20.140625 C 28.660156 -18.941406 29.347656 -17.5625 29.703125 -16 L 19.234375 -16 C 18.453125 -17.113281 17.21875 -17.671875 15.53125 -17.671875 C 13.832031 -17.671875 12.597656 -17.113281 11.828125 -16 C 11.773438 -15.914062 11.75 -15.835938 11.75 -15.765625 C 11.75 -15.492188 12.117188 -15.296875 12.859375 -15.171875 C 13.609375 -15.046875 14.710938 -14.9375 16.171875 -14.84375 C 17.628906 -14.757812 19.179688 -14.617188 20.828125 -14.421875 C 22.484375 -14.234375 24.03125 -13.894531 25.46875 -13.40625 C 26.90625 -12.914062 28.023438 -12.195312 28.828125 -11.25 C 29.460938 -10.519531 29.78125 -9.59375 29.78125 -8.46875 C 29.78125 -8.15625 29.753906 -7.820312 29.703125 -7.46875 C 29.347656 -5.90625 28.660156 -4.523438 27.640625 -3.328125 C 26.628906 -2.140625 25.148438 -1.203125 23.203125 -0.515625 C 21.265625 0.160156 18.707031 0.5 15.53125 0.5 Z M 15.53125 0.5 "/></g></g></g><g fill="#ffffff" fill-opacity="1"><g transform="translate(86.968236, 124.898158)"><g/></g></g></svg>